G04 #@! TF.GenerationSoftware,KiCad,Pcbnew,no-vcs-found-ecdfa40~58~ubuntu16.04.1*
G04 #@! TF.CreationDate,2017-03-29T16:21:29+11:00*
G04 #@! TF.ProjectId,pp_cape_v02,70705F636170655F7630322E6B696361,0.2*
G04 #@! TF.FileFunction,Soldermask,Top*
G04 #@! TF.FilePolarity,Negative*
%FSLAX46Y46*%
G04 Gerber Fmt 4.6, Leading zero omitted, Abs format (unit mm)*
G04 Created by KiCad (PCBNEW no-vcs-found-ecdfa40~58~ubuntu16.04.1) date Wed Mar 29 16:21:29 2017*
%MOMM*%
%LPD*%
G01*
G04 APERTURE LIST*
%ADD10C,0.100000*%
%ADD11R,1.700000X1.700000*%
%ADD12O,1.700000X1.700000*%
%ADD13C,3.200000*%
%ADD14R,1.727200X1.727200*%
%ADD15O,1.727200X1.727200*%
%ADD16C,0.600000*%
G04 APERTURE END LIST*
D10*
D11*
X131610100Y-124612400D03*
D12*
X131610100Y-122072400D03*
X134150100Y-124612400D03*
X134150100Y-122072400D03*
X136690100Y-124612400D03*
X136690100Y-122072400D03*
X139230100Y-124612400D03*
X139230100Y-122072400D03*
X141770100Y-124612400D03*
X141770100Y-122072400D03*
X144310100Y-124612400D03*
X144310100Y-122072400D03*
X146850100Y-124612400D03*
X146850100Y-122072400D03*
X117640100Y-51587400D03*
D11*
X117640100Y-49047400D03*
X155105100Y-110642400D03*
D12*
X155105100Y-113182400D03*
D13*
X120815100Y-123342400D03*
X162725100Y-123342400D03*
X165900100Y-57302400D03*
D14*
X164630100Y-62382400D03*
D15*
X167170100Y-62382400D03*
X164630100Y-64922400D03*
X167170100Y-64922400D03*
X164630100Y-67462400D03*
X167170100Y-67462400D03*
X164630100Y-70002400D03*
X167170100Y-70002400D03*
X164630100Y-72542400D03*
X167170100Y-72542400D03*
X164630100Y-75082400D03*
X167170100Y-75082400D03*
X164630100Y-77622400D03*
X167170100Y-77622400D03*
X164630100Y-80162400D03*
X167170100Y-80162400D03*
X164630100Y-82702400D03*
X167170100Y-82702400D03*
X164630100Y-85242400D03*
X167170100Y-85242400D03*
X164630100Y-87782400D03*
X167170100Y-87782400D03*
X164630100Y-90322400D03*
X167170100Y-90322400D03*
X164630100Y-92862400D03*
X167170100Y-92862400D03*
X164630100Y-95402400D03*
X167170100Y-95402400D03*
X164630100Y-97942400D03*
X167170100Y-97942400D03*
X164630100Y-100482400D03*
X167170100Y-100482400D03*
X164630100Y-103022400D03*
X167170100Y-103022400D03*
X164630100Y-105562400D03*
X167170100Y-105562400D03*
X164630100Y-108102400D03*
X167170100Y-108102400D03*
X164630100Y-110642400D03*
X167170100Y-110642400D03*
X164630100Y-113182400D03*
X167170100Y-113182400D03*
X164630100Y-115722400D03*
X167170100Y-115722400D03*
X164630100Y-118262400D03*
X167170100Y-118262400D03*
D14*
X116370100Y-62382400D03*
D15*
X118910100Y-62382400D03*
X116370100Y-64922400D03*
X118910100Y-64922400D03*
X116370100Y-67462400D03*
X118910100Y-67462400D03*
X116370100Y-70002400D03*
X118910100Y-70002400D03*
X116370100Y-72542400D03*
X118910100Y-72542400D03*
X116370100Y-75082400D03*
X118910100Y-75082400D03*
X116370100Y-77622400D03*
X118910100Y-77622400D03*
X116370100Y-80162400D03*
X118910100Y-80162400D03*
X116370100Y-82702400D03*
X118910100Y-82702400D03*
X116370100Y-85242400D03*
X118910100Y-85242400D03*
X116370100Y-87782400D03*
X118910100Y-87782400D03*
X116370100Y-90322400D03*
X118910100Y-90322400D03*
X116370100Y-92862400D03*
X118910100Y-92862400D03*
X116370100Y-95402400D03*
X118910100Y-95402400D03*
X116370100Y-97942400D03*
X118910100Y-97942400D03*
X116370100Y-100482400D03*
X118910100Y-100482400D03*
X116370100Y-103022400D03*
X118910100Y-103022400D03*
X116370100Y-105562400D03*
X118910100Y-105562400D03*
X116370100Y-108102400D03*
X118910100Y-108102400D03*
X116370100Y-110642400D03*
X118910100Y-110642400D03*
X116370100Y-113182400D03*
X118910100Y-113182400D03*
X116370100Y-115722400D03*
X118910100Y-115722400D03*
X116370100Y-118262400D03*
X118910100Y-118262400D03*
D13*
X117640100Y-57302400D03*
D12*
X131610100Y-82702400D03*
X134150100Y-82702400D03*
X131610100Y-85242400D03*
X134150100Y-85242400D03*
X131610100Y-87782400D03*
X134150100Y-87782400D03*
X131610100Y-90322400D03*
X134150100Y-90322400D03*
X131610100Y-92862400D03*
X134150100Y-92862400D03*
X131610100Y-95402400D03*
X134150100Y-95402400D03*
X131610100Y-97942400D03*
X134150100Y-97942400D03*
X131610100Y-100482400D03*
X134150100Y-100482400D03*
X131610100Y-103022400D03*
X134150100Y-103022400D03*
X131610100Y-105562400D03*
X134150100Y-105562400D03*
X131610100Y-108102400D03*
X134150100Y-108102400D03*
X131610100Y-110642400D03*
X134150100Y-110642400D03*
X131610100Y-113182400D03*
D11*
X134150100Y-113182400D03*
X152565100Y-70002400D03*
D12*
X155105100Y-70002400D03*
X152565100Y-72542400D03*
X155105100Y-72542400D03*
X152565100Y-75082400D03*
X155105100Y-75082400D03*
X152565100Y-77622400D03*
X155105100Y-77622400D03*
X152565100Y-80162400D03*
X155105100Y-80162400D03*
X152565100Y-82702400D03*
X155105100Y-82702400D03*
X152565100Y-85242400D03*
X155105100Y-85242400D03*
X152565100Y-87782400D03*
X155105100Y-87782400D03*
X152565100Y-90322400D03*
X155105100Y-90322400D03*
X152565100Y-92862400D03*
X155105100Y-92862400D03*
X152565100Y-95402400D03*
X155105100Y-95402400D03*
X152565100Y-97942400D03*
X155105100Y-97942400D03*
X152565100Y-100482400D03*
X155105100Y-100482400D03*
X126530100Y-72542400D03*
X123990100Y-72542400D03*
X126530100Y-70002400D03*
X123990100Y-70002400D03*
X126530100Y-67462400D03*
X123990100Y-67462400D03*
X126530100Y-64922400D03*
X123990100Y-64922400D03*
X126530100Y-62382400D03*
D11*
X123990100Y-62382400D03*
D12*
X132880100Y-56667400D03*
X132880100Y-54127400D03*
X132880100Y-51587400D03*
D11*
X132880100Y-49047400D03*
D16*
X125895100Y-84607400D03*
X146215100Y-103657400D03*
X146215100Y-86512400D03*
X146215100Y-71272400D03*
X153835100Y-106197400D03*
X129070100Y-115087400D03*
X131610100Y-118262400D03*
X139865100Y-117627400D03*
X135420100Y-117627400D03*
M02*
