M48
;DRILL file {KiCad no-vcs-found-ecdfa40~58~ubuntu16.04.1} date Wed Mar 29 16:21:56 2017
;FORMAT={2:4/ absolute / inch / suppress leading zeros}
FMAT,2
INCH,TZ
T1C0.016
T2C0.039
T3C0.040
%
G90
G05
M72
T1
X49565Y-33310
X50815Y-45310
X51815Y-46560
X53315Y-46310
X55065Y-46310
X57565Y-28060
X57565Y-34060
X57565Y-40810
X60565Y-41810
T2
X46315Y-19310
X46315Y-20310
X48815Y-24560
X48815Y-25560
X48815Y-26560
X48815Y-27560
X48815Y-28560
X49815Y-24560
X49815Y-25560
X49815Y-26560
X49815Y-27560
X49815Y-28560
X51815Y-32560
X51815Y-33560
X51815Y-34560
X51815Y-35560
X51815Y-36560
X51815Y-37560
X51815Y-38560
X51815Y-39560
X51815Y-40560
X51815Y-41560
X51815Y-42560
X51815Y-43560
X51815Y-44560
X51815Y-48060
X51815Y-49060
X52315Y-19310
X52315Y-20310
X52315Y-21310
X52315Y-22310
X52815Y-32560
X52815Y-33560
X52815Y-34560
X52815Y-35560
X52815Y-36560
X52815Y-37560
X52815Y-38560
X52815Y-39560
X52815Y-40560
X52815Y-41560
X52815Y-42560
X52815Y-43560
X52815Y-44560
X52815Y-48060
X52815Y-49060
X53815Y-48060
X53815Y-49060
X54815Y-48060
X54815Y-49060
X55815Y-48060
X55815Y-49060
X56815Y-48060
X56815Y-49060
X57815Y-48060
X57815Y-49060
X60065Y-27560
X60065Y-28560
X60065Y-29560
X60065Y-30560
X60065Y-31560
X60065Y-32560
X60065Y-33560
X60065Y-34560
X60065Y-35560
X60065Y-36560
X60065Y-37560
X60065Y-38560
X60065Y-39560
X61065Y-27560
X61065Y-28560
X61065Y-29560
X61065Y-30560
X61065Y-31560
X61065Y-32560
X61065Y-33560
X61065Y-34560
X61065Y-35560
X61065Y-36560
X61065Y-37560
X61065Y-38560
X61065Y-39560
X61065Y-43560
X61065Y-44560
T3
X45815Y-24560
X45815Y-25560
X45815Y-26560
X45815Y-27560
X45815Y-28560
X45815Y-29560
X45815Y-30560
X45815Y-31560
X45815Y-32560
X45815Y-33560
X45815Y-34560
X45815Y-35560
X45815Y-36560
X45815Y-37560
X45815Y-38560
X45815Y-39560
X45815Y-40560
X45815Y-41560
X45815Y-42560
X45815Y-43560
X45815Y-44560
X45815Y-45560
X45815Y-46560
X46815Y-24560
X46815Y-25560
X46815Y-26560
X46815Y-27560
X46815Y-28560
X46815Y-29560
X46815Y-30560
X46815Y-31560
X46815Y-32560
X46815Y-33560
X46815Y-34560
X46815Y-35560
X46815Y-36560
X46815Y-37560
X46815Y-38560
X46815Y-39560
X46815Y-40560
X46815Y-41560
X46815Y-42560
X46815Y-43560
X46815Y-44560
X46815Y-45560
X46815Y-46560
X64815Y-24560
X64815Y-25560
X64815Y-26560
X64815Y-27560
X64815Y-28560
X64815Y-29560
X64815Y-30560
X64815Y-31560
X64815Y-32560
X64815Y-33560
X64815Y-34560
X64815Y-35560
X64815Y-36560
X64815Y-37560
X64815Y-38560
X64815Y-39560
X64815Y-40560
X64815Y-41560
X64815Y-42560
X64815Y-43560
X64815Y-44560
X64815Y-45560
X64815Y-46560
X65815Y-24560
X65815Y-25560
X65815Y-26560
X65815Y-27560
X65815Y-28560
X65815Y-29560
X65815Y-30560
X65815Y-31560
X65815Y-32560
X65815Y-33560
X65815Y-34560
X65815Y-35560
X65815Y-36560
X65815Y-37560
X65815Y-38560
X65815Y-39560
X65815Y-40560
X65815Y-41560
X65815Y-42560
X65815Y-43560
X65815Y-44560
X65815Y-45560
X65815Y-46560
T0
M30
