G04 #@! TF.GenerationSoftware,KiCad,Pcbnew,no-vcs-found-ecdfa40~58~ubuntu16.04.1*
G04 #@! TF.CreationDate,2017-03-29T16:21:29+11:00*
G04 #@! TF.ProjectId,pp_cape_v02,70705F636170655F7630322E6B696361,0.2*
G04 #@! TF.FileFunction,Legend,Top*
G04 #@! TF.FilePolarity,Positive*
%FSLAX46Y46*%
G04 Gerber Fmt 4.6, Leading zero omitted, Abs format (unit mm)*
G04 Created by KiCad (PCBNEW no-vcs-found-ecdfa40~58~ubuntu16.04.1) date Wed Mar 29 16:21:29 2017*
%MOMM*%
%LPD*%
G01*
G04 APERTURE LIST*
%ADD10C,0.100000*%
%ADD11C,0.200000*%
%ADD12C,0.203200*%
%ADD13C,0.177800*%
%ADD14C,0.120000*%
%ADD15C,0.150000*%
G04 APERTURE END LIST*
D10*
D11*
X158280100Y-120802400D02*
X150025100Y-120802400D01*
X158280100Y-125882400D02*
X158280100Y-120802400D01*
X150025100Y-125882400D02*
X158280100Y-125882400D01*
X150025100Y-120802400D02*
X150025100Y-125882400D01*
X160820100Y-115849400D02*
X159550100Y-115849400D01*
X160820100Y-116992400D02*
X160820100Y-117754400D01*
X160820100Y-117627400D02*
X160820100Y-116992400D01*
X160820100Y-117754400D02*
X159550100Y-117754400D01*
X160820100Y-113182400D02*
X160820100Y-116992400D01*
X157645100Y-113182400D02*
X160820100Y-113182400D01*
D12*
X151307195Y-116588419D02*
X151307195Y-115572419D01*
X151694242Y-115572419D01*
X151791004Y-115620800D01*
X151839385Y-115669180D01*
X151887766Y-115765942D01*
X151887766Y-115911085D01*
X151839385Y-116007847D01*
X151791004Y-116056228D01*
X151694242Y-116104609D01*
X151307195Y-116104609D01*
X152468338Y-116588419D02*
X152371576Y-116540038D01*
X152323195Y-116491657D01*
X152274814Y-116394895D01*
X152274814Y-116104609D01*
X152323195Y-116007847D01*
X152371576Y-115959466D01*
X152468338Y-115911085D01*
X152613480Y-115911085D01*
X152710242Y-115959466D01*
X152758623Y-116007847D01*
X152807004Y-116104609D01*
X152807004Y-116394895D01*
X152758623Y-116491657D01*
X152710242Y-116540038D01*
X152613480Y-116588419D01*
X152468338Y-116588419D01*
X153242433Y-116588419D02*
X153242433Y-115911085D01*
X153242433Y-116104609D02*
X153290814Y-116007847D01*
X153339195Y-115959466D01*
X153435957Y-115911085D01*
X153532719Y-115911085D01*
X153726242Y-115911085D02*
X154113290Y-115911085D01*
X153871385Y-115572419D02*
X153871385Y-116443276D01*
X153919766Y-116540038D01*
X154016528Y-116588419D01*
X154113290Y-116588419D01*
X155758242Y-116588419D02*
X155177671Y-116588419D01*
X155467957Y-116588419D02*
X155467957Y-115572419D01*
X155371195Y-115717561D01*
X155274433Y-115814323D01*
X155177671Y-115862704D01*
X156193671Y-116201371D02*
X156967766Y-116201371D01*
X157403195Y-115669180D02*
X157451576Y-115620800D01*
X157548338Y-115572419D01*
X157790242Y-115572419D01*
X157887004Y-115620800D01*
X157935385Y-115669180D01*
X157983766Y-115765942D01*
X157983766Y-115862704D01*
X157935385Y-116007847D01*
X157354814Y-116588419D01*
X157983766Y-116588419D01*
X158854623Y-115572419D02*
X158661100Y-115572419D01*
X158564338Y-115620800D01*
X158515957Y-115669180D01*
X158419195Y-115814323D01*
X158370814Y-116007847D01*
X158370814Y-116394895D01*
X158419195Y-116491657D01*
X158467576Y-116540038D01*
X158564338Y-116588419D01*
X158757861Y-116588419D01*
X158854623Y-116540038D01*
X158903004Y-116491657D01*
X158951385Y-116394895D01*
X158951385Y-116152990D01*
X158903004Y-116056228D01*
X158854623Y-116007847D01*
X158757861Y-115959466D01*
X158564338Y-115959466D01*
X158467576Y-116007847D01*
X158419195Y-116056228D01*
X158370814Y-116152990D01*
X151307195Y-118315619D02*
X151307195Y-117299619D01*
X151694242Y-117299619D01*
X151791004Y-117348000D01*
X151839385Y-117396380D01*
X151887766Y-117493142D01*
X151887766Y-117638285D01*
X151839385Y-117735047D01*
X151791004Y-117783428D01*
X151694242Y-117831809D01*
X151307195Y-117831809D01*
X152468338Y-118315619D02*
X152371576Y-118267238D01*
X152323195Y-118218857D01*
X152274814Y-118122095D01*
X152274814Y-117831809D01*
X152323195Y-117735047D01*
X152371576Y-117686666D01*
X152468338Y-117638285D01*
X152613480Y-117638285D01*
X152710242Y-117686666D01*
X152758623Y-117735047D01*
X152807004Y-117831809D01*
X152807004Y-118122095D01*
X152758623Y-118218857D01*
X152710242Y-118267238D01*
X152613480Y-118315619D01*
X152468338Y-118315619D01*
X153242433Y-118315619D02*
X153242433Y-117638285D01*
X153242433Y-117831809D02*
X153290814Y-117735047D01*
X153339195Y-117686666D01*
X153435957Y-117638285D01*
X153532719Y-117638285D01*
X153726242Y-117638285D02*
X154113290Y-117638285D01*
X153871385Y-117299619D02*
X153871385Y-118170476D01*
X153919766Y-118267238D01*
X154016528Y-118315619D01*
X154113290Y-118315619D01*
X155177671Y-117396380D02*
X155226052Y-117348000D01*
X155322814Y-117299619D01*
X155564719Y-117299619D01*
X155661480Y-117348000D01*
X155709861Y-117396380D01*
X155758242Y-117493142D01*
X155758242Y-117589904D01*
X155709861Y-117735047D01*
X155129290Y-118315619D01*
X155758242Y-118315619D01*
X156193671Y-117928571D02*
X156967766Y-117928571D01*
X157403195Y-117396380D02*
X157451576Y-117348000D01*
X157548338Y-117299619D01*
X157790242Y-117299619D01*
X157887004Y-117348000D01*
X157935385Y-117396380D01*
X157983766Y-117493142D01*
X157983766Y-117589904D01*
X157935385Y-117735047D01*
X157354814Y-118315619D01*
X157983766Y-118315619D01*
X158854623Y-117299619D02*
X158661100Y-117299619D01*
X158564338Y-117348000D01*
X158515957Y-117396380D01*
X158419195Y-117541523D01*
X158370814Y-117735047D01*
X158370814Y-118122095D01*
X158419195Y-118218857D01*
X158467576Y-118267238D01*
X158564338Y-118315619D01*
X158757861Y-118315619D01*
X158854623Y-118267238D01*
X158903004Y-118218857D01*
X158951385Y-118122095D01*
X158951385Y-117880190D01*
X158903004Y-117783428D01*
X158854623Y-117735047D01*
X158757861Y-117686666D01*
X158564338Y-117686666D01*
X158467576Y-117735047D01*
X158419195Y-117783428D01*
X158370814Y-117880190D01*
X150884829Y-109451019D02*
X151078353Y-109451019D01*
X151175115Y-109499400D01*
X151271877Y-109596161D01*
X151320258Y-109789685D01*
X151320258Y-110128352D01*
X151271877Y-110321876D01*
X151175115Y-110418638D01*
X151078353Y-110467019D01*
X150884829Y-110467019D01*
X150788067Y-110418638D01*
X150691305Y-110321876D01*
X150642924Y-110128352D01*
X150642924Y-109789685D01*
X150691305Y-109596161D01*
X150788067Y-109499400D01*
X150884829Y-109451019D01*
X151755686Y-109934828D02*
X152094353Y-109934828D01*
X152239496Y-110467019D02*
X151755686Y-110467019D01*
X151755686Y-109451019D01*
X152239496Y-109451019D01*
D11*
X151295100Y-68732400D02*
X150025100Y-67462400D01*
X135420100Y-114452400D02*
X136690100Y-115722400D01*
X144310100Y-115087400D02*
X144310100Y-114452400D01*
X141770100Y-115087400D02*
X144310100Y-115087400D01*
X141770100Y-96037400D02*
X141770100Y-115087400D01*
X144310100Y-96037400D02*
X141770100Y-96037400D01*
X144310100Y-101752400D02*
X144310100Y-96037400D01*
X145580100Y-101752400D02*
X144310100Y-101752400D01*
X145580100Y-109372400D02*
X145580100Y-101752400D01*
X144310100Y-109372400D02*
X145580100Y-109372400D01*
X144310100Y-114452400D02*
X144310100Y-109372400D01*
X144310100Y-66827400D02*
X144310100Y-67462400D01*
X141770100Y-66827400D02*
X144310100Y-66827400D01*
X141770100Y-67462400D02*
X141770100Y-66827400D01*
X144310100Y-93497400D02*
X144310100Y-92227400D01*
X141770100Y-93497400D02*
X144310100Y-93497400D01*
X141770100Y-92227400D02*
X141770100Y-93497400D01*
X144310100Y-92227400D02*
X144310100Y-83972400D01*
X141770100Y-83972400D02*
X141770100Y-92227400D01*
X141770100Y-83972400D02*
X141770100Y-67462400D01*
X144310100Y-67462400D02*
X144310100Y-83972400D01*
D13*
X143442266Y-92523733D02*
X142553266Y-92523733D01*
X142553266Y-92312066D01*
X142595600Y-92185066D01*
X142680266Y-92100400D01*
X142764933Y-92058066D01*
X142934266Y-92015733D01*
X143061266Y-92015733D01*
X143230600Y-92058066D01*
X143315266Y-92100400D01*
X143399933Y-92185066D01*
X143442266Y-92312066D01*
X143442266Y-92523733D01*
X142553266Y-91465400D02*
X142553266Y-91296066D01*
X142595600Y-91211400D01*
X142680266Y-91126733D01*
X142849600Y-91084400D01*
X143145933Y-91084400D01*
X143315266Y-91126733D01*
X143399933Y-91211400D01*
X143442266Y-91296066D01*
X143442266Y-91465400D01*
X143399933Y-91550066D01*
X143315266Y-91634733D01*
X143145933Y-91677066D01*
X142849600Y-91677066D01*
X142680266Y-91634733D01*
X142595600Y-91550066D01*
X142553266Y-91465400D01*
X143442266Y-90026066D02*
X142553266Y-90026066D01*
X143442266Y-89518066D01*
X142553266Y-89518066D01*
X142553266Y-88925400D02*
X142553266Y-88756066D01*
X142595600Y-88671400D01*
X142680266Y-88586733D01*
X142849600Y-88544400D01*
X143145933Y-88544400D01*
X143315266Y-88586733D01*
X143399933Y-88671400D01*
X143442266Y-88756066D01*
X143442266Y-88925400D01*
X143399933Y-89010066D01*
X143315266Y-89094733D01*
X143145933Y-89137066D01*
X142849600Y-89137066D01*
X142680266Y-89094733D01*
X142595600Y-89010066D01*
X142553266Y-88925400D01*
X142553266Y-88290400D02*
X142553266Y-87782400D01*
X143442266Y-88036400D02*
X142553266Y-88036400D01*
X143188266Y-86851066D02*
X143188266Y-86427733D01*
X143442266Y-86935733D02*
X142553266Y-86639400D01*
X143442266Y-86343066D01*
X143442266Y-86046733D02*
X142553266Y-86046733D01*
X142553266Y-85708066D01*
X142595600Y-85623400D01*
X142637933Y-85581066D01*
X142722600Y-85538733D01*
X142849600Y-85538733D01*
X142934266Y-85581066D01*
X142976600Y-85623400D01*
X143018933Y-85708066D01*
X143018933Y-86046733D01*
X143442266Y-85157733D02*
X142553266Y-85157733D01*
X142553266Y-84819066D01*
X142595600Y-84734400D01*
X142637933Y-84692066D01*
X142722600Y-84649733D01*
X142849600Y-84649733D01*
X142934266Y-84692066D01*
X142976600Y-84734400D01*
X143018933Y-84819066D01*
X143018933Y-85157733D01*
X143442266Y-83845400D02*
X143442266Y-84268733D01*
X142553266Y-84268733D01*
X143018933Y-83379733D02*
X143442266Y-83379733D01*
X142553266Y-83676066D02*
X143018933Y-83379733D01*
X142553266Y-83083400D01*
X142553266Y-81686400D02*
X142553266Y-82109733D01*
X142976600Y-82152066D01*
X142934266Y-82109733D01*
X142891933Y-82025066D01*
X142891933Y-81813400D01*
X142934266Y-81728733D01*
X142976600Y-81686400D01*
X143061266Y-81644066D01*
X143272933Y-81644066D01*
X143357600Y-81686400D01*
X143399933Y-81728733D01*
X143442266Y-81813400D01*
X143442266Y-82025066D01*
X143399933Y-82109733D01*
X143357600Y-82152066D01*
X142553266Y-81390066D02*
X143442266Y-81093733D01*
X142553266Y-80797400D01*
X142553266Y-79950733D02*
X142553266Y-79442733D01*
X143442266Y-79696733D02*
X142553266Y-79696733D01*
X142553266Y-78977066D02*
X142553266Y-78807733D01*
X142595600Y-78723066D01*
X142680266Y-78638400D01*
X142849600Y-78596066D01*
X143145933Y-78596066D01*
X143315266Y-78638400D01*
X143399933Y-78723066D01*
X143442266Y-78807733D01*
X143442266Y-78977066D01*
X143399933Y-79061733D01*
X143315266Y-79146400D01*
X143145933Y-79188733D01*
X142849600Y-79188733D01*
X142680266Y-79146400D01*
X142595600Y-79061733D01*
X142553266Y-78977066D01*
X143442266Y-77537733D02*
X142553266Y-77537733D01*
X142553266Y-77326066D01*
X142595600Y-77199066D01*
X142680266Y-77114400D01*
X142764933Y-77072066D01*
X142934266Y-77029733D01*
X143061266Y-77029733D01*
X143230600Y-77072066D01*
X143315266Y-77114400D01*
X143399933Y-77199066D01*
X143442266Y-77326066D01*
X143442266Y-77537733D01*
X143442266Y-76648733D02*
X142553266Y-76648733D01*
X142595600Y-75759733D02*
X142553266Y-75844400D01*
X142553266Y-75971400D01*
X142595600Y-76098400D01*
X142680266Y-76183066D01*
X142764933Y-76225400D01*
X142934266Y-76267733D01*
X143061266Y-76267733D01*
X143230600Y-76225400D01*
X143315266Y-76183066D01*
X143399933Y-76098400D01*
X143442266Y-75971400D01*
X143442266Y-75886733D01*
X143399933Y-75759733D01*
X143357600Y-75717400D01*
X143061266Y-75717400D01*
X143061266Y-75886733D01*
X143442266Y-75336400D02*
X142553266Y-75336400D01*
X142553266Y-75040066D02*
X142553266Y-74532066D01*
X143442266Y-74786066D02*
X142553266Y-74786066D01*
X143188266Y-74278066D02*
X143188266Y-73854733D01*
X143442266Y-74362733D02*
X142553266Y-74066400D01*
X143442266Y-73770066D01*
X143442266Y-73050400D02*
X143442266Y-73473733D01*
X142553266Y-73473733D01*
X143442266Y-72076733D02*
X142553266Y-72076733D01*
X143442266Y-71653400D02*
X142553266Y-71653400D01*
X143442266Y-71145400D01*
X142553266Y-71145400D01*
X143442266Y-70722066D02*
X142553266Y-70722066D01*
X142553266Y-70383400D01*
X142595600Y-70298733D01*
X142637933Y-70256400D01*
X142722600Y-70214066D01*
X142849600Y-70214066D01*
X142934266Y-70256400D01*
X142976600Y-70298733D01*
X143018933Y-70383400D01*
X143018933Y-70722066D01*
X142553266Y-69833066D02*
X143272933Y-69833066D01*
X143357600Y-69790733D01*
X143399933Y-69748400D01*
X143442266Y-69663733D01*
X143442266Y-69494400D01*
X143399933Y-69409733D01*
X143357600Y-69367400D01*
X143272933Y-69325066D01*
X142553266Y-69325066D01*
X142553266Y-69028733D02*
X142553266Y-68520733D01*
X143442266Y-68774733D02*
X142553266Y-68774733D01*
X143399933Y-68266733D02*
X143442266Y-68139733D01*
X143442266Y-67928066D01*
X143399933Y-67843400D01*
X143357600Y-67801066D01*
X143272933Y-67758733D01*
X143188266Y-67758733D01*
X143103600Y-67801066D01*
X143061266Y-67843400D01*
X143018933Y-67928066D01*
X142976600Y-68097400D01*
X142934266Y-68182066D01*
X142891933Y-68224400D01*
X142807266Y-68266733D01*
X142722600Y-68266733D01*
X142637933Y-68224400D01*
X142595600Y-68182066D01*
X142553266Y-68097400D01*
X142553266Y-67885733D01*
X142595600Y-67758733D01*
D12*
X143271119Y-114004876D02*
X142255119Y-114004876D01*
X142255119Y-113617828D01*
X142303500Y-113521066D01*
X142351880Y-113472685D01*
X142448642Y-113424304D01*
X142593785Y-113424304D01*
X142690547Y-113472685D01*
X142738928Y-113521066D01*
X142787309Y-113617828D01*
X142787309Y-114004876D01*
X143271119Y-112553447D02*
X142738928Y-112553447D01*
X142642166Y-112601828D01*
X142593785Y-112698590D01*
X142593785Y-112892114D01*
X142642166Y-112988876D01*
X143222738Y-112553447D02*
X143271119Y-112650209D01*
X143271119Y-112892114D01*
X143222738Y-112988876D01*
X143125976Y-113037257D01*
X143029214Y-113037257D01*
X142932452Y-112988876D01*
X142884071Y-112892114D01*
X142884071Y-112650209D01*
X142835690Y-112553447D01*
X143222738Y-112118019D02*
X143271119Y-112021257D01*
X143271119Y-111827733D01*
X143222738Y-111730971D01*
X143125976Y-111682590D01*
X143077595Y-111682590D01*
X142980833Y-111730971D01*
X142932452Y-111827733D01*
X142932452Y-111972876D01*
X142884071Y-112069638D01*
X142787309Y-112118019D01*
X142738928Y-112118019D01*
X142642166Y-112069638D01*
X142593785Y-111972876D01*
X142593785Y-111827733D01*
X142642166Y-111730971D01*
X143222738Y-111295542D02*
X143271119Y-111198780D01*
X143271119Y-111005257D01*
X143222738Y-110908495D01*
X143125976Y-110860114D01*
X143077595Y-110860114D01*
X142980833Y-110908495D01*
X142932452Y-111005257D01*
X142932452Y-111150400D01*
X142884071Y-111247161D01*
X142787309Y-111295542D01*
X142738928Y-111295542D01*
X142642166Y-111247161D01*
X142593785Y-111150400D01*
X142593785Y-111005257D01*
X142642166Y-110908495D01*
X143271119Y-110424685D02*
X142593785Y-110424685D01*
X142255119Y-110424685D02*
X142303500Y-110473066D01*
X142351880Y-110424685D01*
X142303500Y-110376304D01*
X142255119Y-110424685D01*
X142351880Y-110424685D01*
X142593785Y-110037638D02*
X143271119Y-109795733D01*
X142593785Y-109553828D01*
X143222738Y-108779733D02*
X143271119Y-108876495D01*
X143271119Y-109070019D01*
X143222738Y-109166780D01*
X143125976Y-109215161D01*
X142738928Y-109215161D01*
X142642166Y-109166780D01*
X142593785Y-109070019D01*
X142593785Y-108876495D01*
X142642166Y-108779733D01*
X142738928Y-108731352D01*
X142835690Y-108731352D01*
X142932452Y-109215161D01*
X143174357Y-106941257D02*
X143222738Y-106989638D01*
X143271119Y-107134780D01*
X143271119Y-107231542D01*
X143222738Y-107376685D01*
X143125976Y-107473447D01*
X143029214Y-107521828D01*
X142835690Y-107570209D01*
X142690547Y-107570209D01*
X142497023Y-107521828D01*
X142400261Y-107473447D01*
X142303500Y-107376685D01*
X142255119Y-107231542D01*
X142255119Y-107134780D01*
X142303500Y-106989638D01*
X142351880Y-106941257D01*
X143271119Y-106505828D02*
X142255119Y-106505828D01*
X143271119Y-105925257D01*
X142255119Y-105925257D01*
X143174357Y-104860876D02*
X143222738Y-104909257D01*
X143271119Y-105054400D01*
X143271119Y-105151161D01*
X143222738Y-105296304D01*
X143125976Y-105393066D01*
X143029214Y-105441447D01*
X142835690Y-105489828D01*
X142690547Y-105489828D01*
X142497023Y-105441447D01*
X142400261Y-105393066D01*
X142303500Y-105296304D01*
X142255119Y-105151161D01*
X142255119Y-105054400D01*
X142303500Y-104909257D01*
X142351880Y-104860876D01*
X142884071Y-104425447D02*
X142884071Y-103651352D01*
X143271119Y-103167542D02*
X142255119Y-103167542D01*
X142255119Y-102780495D01*
X142303500Y-102683733D01*
X142351880Y-102635352D01*
X142448642Y-102586971D01*
X142593785Y-102586971D01*
X142690547Y-102635352D01*
X142738928Y-102683733D01*
X142787309Y-102780495D01*
X142787309Y-103167542D01*
X143271119Y-102151542D02*
X142255119Y-102151542D01*
X142255119Y-101764495D01*
X142303500Y-101667733D01*
X142351880Y-101619352D01*
X142448642Y-101570971D01*
X142593785Y-101570971D01*
X142690547Y-101619352D01*
X142738928Y-101667733D01*
X142787309Y-101764495D01*
X142787309Y-102151542D01*
X143174357Y-99780876D02*
X143222738Y-99829257D01*
X143271119Y-99974400D01*
X143271119Y-100071161D01*
X143222738Y-100216304D01*
X143125976Y-100313066D01*
X143029214Y-100361447D01*
X142835690Y-100409828D01*
X142690547Y-100409828D01*
X142497023Y-100361447D01*
X142400261Y-100313066D01*
X142303500Y-100216304D01*
X142255119Y-100071161D01*
X142255119Y-99974400D01*
X142303500Y-99829257D01*
X142351880Y-99780876D01*
X143271119Y-98910019D02*
X142738928Y-98910019D01*
X142642166Y-98958400D01*
X142593785Y-99055161D01*
X142593785Y-99248685D01*
X142642166Y-99345447D01*
X143222738Y-98910019D02*
X143271119Y-99006780D01*
X143271119Y-99248685D01*
X143222738Y-99345447D01*
X143125976Y-99393828D01*
X143029214Y-99393828D01*
X142932452Y-99345447D01*
X142884071Y-99248685D01*
X142884071Y-99006780D01*
X142835690Y-98910019D01*
X142593785Y-98426209D02*
X143609785Y-98426209D01*
X142642166Y-98426209D02*
X142593785Y-98329447D01*
X142593785Y-98135923D01*
X142642166Y-98039161D01*
X142690547Y-97990780D01*
X142787309Y-97942400D01*
X143077595Y-97942400D01*
X143174357Y-97990780D01*
X143222738Y-98039161D01*
X143271119Y-98135923D01*
X143271119Y-98329447D01*
X143222738Y-98426209D01*
X143222738Y-97119923D02*
X143271119Y-97216685D01*
X143271119Y-97410209D01*
X143222738Y-97506971D01*
X143125976Y-97555352D01*
X142738928Y-97555352D01*
X142642166Y-97506971D01*
X142593785Y-97410209D01*
X142593785Y-97216685D01*
X142642166Y-97119923D01*
X142738928Y-97071542D01*
X142835690Y-97071542D01*
X142932452Y-97555352D01*
X144998319Y-107908876D02*
X144514509Y-108247542D01*
X144998319Y-108489447D02*
X143982319Y-108489447D01*
X143982319Y-108102400D01*
X144030700Y-108005638D01*
X144079080Y-107957257D01*
X144175842Y-107908876D01*
X144320985Y-107908876D01*
X144417747Y-107957257D01*
X144466128Y-108005638D01*
X144514509Y-108102400D01*
X144514509Y-108489447D01*
X144949938Y-107086400D02*
X144998319Y-107183161D01*
X144998319Y-107376685D01*
X144949938Y-107473447D01*
X144853176Y-107521828D01*
X144466128Y-107521828D01*
X144369366Y-107473447D01*
X144320985Y-107376685D01*
X144320985Y-107183161D01*
X144369366Y-107086400D01*
X144466128Y-107038019D01*
X144562890Y-107038019D01*
X144659652Y-107521828D01*
X144320985Y-106699352D02*
X144998319Y-106457447D01*
X144320985Y-106215542D01*
X144611271Y-105828495D02*
X144611271Y-105054400D01*
X143982319Y-104377066D02*
X143982319Y-104280304D01*
X144030700Y-104183542D01*
X144079080Y-104135161D01*
X144175842Y-104086780D01*
X144369366Y-104038400D01*
X144611271Y-104038400D01*
X144804795Y-104086780D01*
X144901557Y-104135161D01*
X144949938Y-104183542D01*
X144998319Y-104280304D01*
X144998319Y-104377066D01*
X144949938Y-104473828D01*
X144901557Y-104522209D01*
X144804795Y-104570590D01*
X144611271Y-104618971D01*
X144369366Y-104618971D01*
X144175842Y-104570590D01*
X144079080Y-104522209D01*
X144030700Y-104473828D01*
X143982319Y-104377066D01*
X144901557Y-103602971D02*
X144949938Y-103554590D01*
X144998319Y-103602971D01*
X144949938Y-103651352D01*
X144901557Y-103602971D01*
X144998319Y-103602971D01*
X144079080Y-103167542D02*
X144030700Y-103119161D01*
X143982319Y-103022400D01*
X143982319Y-102780495D01*
X144030700Y-102683733D01*
X144079080Y-102635352D01*
X144175842Y-102586971D01*
X144272604Y-102586971D01*
X144417747Y-102635352D01*
X144998319Y-103215923D01*
X144998319Y-102586971D01*
D13*
X136457266Y-54148566D02*
X135568266Y-54148566D01*
X135652933Y-53767566D02*
X135610600Y-53725233D01*
X135568266Y-53640566D01*
X135568266Y-53428900D01*
X135610600Y-53344233D01*
X135652933Y-53301900D01*
X135737600Y-53259566D01*
X135822266Y-53259566D01*
X135949266Y-53301900D01*
X136457266Y-53809900D01*
X136457266Y-53259566D01*
X136372600Y-52370566D02*
X136414933Y-52412900D01*
X136457266Y-52539900D01*
X136457266Y-52624566D01*
X136414933Y-52751566D01*
X136330266Y-52836233D01*
X136245600Y-52878566D01*
X136076266Y-52920900D01*
X135949266Y-52920900D01*
X135779933Y-52878566D01*
X135695266Y-52836233D01*
X135610600Y-52751566D01*
X135568266Y-52624566D01*
X135568266Y-52539900D01*
X135610600Y-52412900D01*
X135652933Y-52370566D01*
X135652933Y-52031900D02*
X135610600Y-51989566D01*
X135568266Y-51904900D01*
X135568266Y-51693233D01*
X135610600Y-51608566D01*
X135652933Y-51566233D01*
X135737600Y-51523900D01*
X135822266Y-51523900D01*
X135949266Y-51566233D01*
X136457266Y-52074233D01*
X136457266Y-51523900D01*
X127938530Y-51947233D02*
X128065530Y-51989566D01*
X128277196Y-51989566D01*
X128361863Y-51947233D01*
X128404196Y-51904900D01*
X128446530Y-51820233D01*
X128446530Y-51735566D01*
X128404196Y-51650900D01*
X128361863Y-51608566D01*
X128277196Y-51566233D01*
X128107863Y-51523900D01*
X128023196Y-51481566D01*
X127980863Y-51439233D01*
X127938530Y-51354566D01*
X127938530Y-51269900D01*
X127980863Y-51185233D01*
X128023196Y-51142900D01*
X128107863Y-51100566D01*
X128319530Y-51100566D01*
X128446530Y-51142900D01*
X129335530Y-51904900D02*
X129293196Y-51947233D01*
X129166196Y-51989566D01*
X129081530Y-51989566D01*
X128954530Y-51947233D01*
X128869863Y-51862566D01*
X128827530Y-51777900D01*
X128785196Y-51608566D01*
X128785196Y-51481566D01*
X128827530Y-51312233D01*
X128869863Y-51227566D01*
X128954530Y-51142900D01*
X129081530Y-51100566D01*
X129166196Y-51100566D01*
X129293196Y-51142900D01*
X129335530Y-51185233D01*
X130139863Y-51989566D02*
X129716530Y-51989566D01*
X129716530Y-51100566D01*
X127896196Y-54487233D02*
X128023196Y-54529566D01*
X128234863Y-54529566D01*
X128319530Y-54487233D01*
X128361863Y-54444900D01*
X128404196Y-54360233D01*
X128404196Y-54275566D01*
X128361863Y-54190900D01*
X128319530Y-54148566D01*
X128234863Y-54106233D01*
X128065530Y-54063900D01*
X127980863Y-54021566D01*
X127938530Y-53979233D01*
X127896196Y-53894566D01*
X127896196Y-53809900D01*
X127938530Y-53725233D01*
X127980863Y-53682900D01*
X128065530Y-53640566D01*
X128277196Y-53640566D01*
X128404196Y-53682900D01*
X128785196Y-54529566D02*
X128785196Y-53640566D01*
X128996863Y-53640566D01*
X129123863Y-53682900D01*
X129208530Y-53767566D01*
X129250863Y-53852233D01*
X129293196Y-54021566D01*
X129293196Y-54148566D01*
X129250863Y-54317900D01*
X129208530Y-54402566D01*
X129123863Y-54487233D01*
X128996863Y-54529566D01*
X128785196Y-54529566D01*
X129631863Y-54275566D02*
X130055196Y-54275566D01*
X129547196Y-54529566D02*
X129843530Y-53640566D01*
X130139863Y-54529566D01*
X126880196Y-56730900D02*
X127557530Y-56730900D01*
X127218863Y-57069566D02*
X127218863Y-56392233D01*
X127896196Y-56180566D02*
X128446530Y-56180566D01*
X128150196Y-56519233D01*
X128277196Y-56519233D01*
X128361863Y-56561566D01*
X128404196Y-56603900D01*
X128446530Y-56688566D01*
X128446530Y-56900233D01*
X128404196Y-56984900D01*
X128361863Y-57027233D01*
X128277196Y-57069566D01*
X128023196Y-57069566D01*
X127938530Y-57027233D01*
X127896196Y-56984900D01*
X128700530Y-56180566D02*
X128996863Y-57069566D01*
X129293196Y-56180566D01*
X129504863Y-56180566D02*
X130055196Y-56180566D01*
X129758863Y-56519233D01*
X129885863Y-56519233D01*
X129970530Y-56561566D01*
X130012863Y-56603900D01*
X130055196Y-56688566D01*
X130055196Y-56900233D01*
X130012863Y-56984900D01*
X129970530Y-57027233D01*
X129885863Y-57069566D01*
X129631863Y-57069566D01*
X129547196Y-57027233D01*
X129504863Y-56984900D01*
X126837863Y-48814566D02*
X126837863Y-47925566D01*
X127049530Y-47925566D01*
X127176530Y-47967900D01*
X127261196Y-48052566D01*
X127303530Y-48137233D01*
X127345863Y-48306566D01*
X127345863Y-48433566D01*
X127303530Y-48602900D01*
X127261196Y-48687566D01*
X127176530Y-48772233D01*
X127049530Y-48814566D01*
X126837863Y-48814566D01*
X128192530Y-47967900D02*
X128107863Y-47925566D01*
X127980863Y-47925566D01*
X127853863Y-47967900D01*
X127769196Y-48052566D01*
X127726863Y-48137233D01*
X127684530Y-48306566D01*
X127684530Y-48433566D01*
X127726863Y-48602900D01*
X127769196Y-48687566D01*
X127853863Y-48772233D01*
X127980863Y-48814566D01*
X128065530Y-48814566D01*
X128192530Y-48772233D01*
X128234863Y-48729900D01*
X128234863Y-48433566D01*
X128065530Y-48433566D01*
X128615863Y-48814566D02*
X128615863Y-47925566D01*
X129123863Y-48814566D01*
X129123863Y-47925566D01*
X129547196Y-48814566D02*
X129547196Y-47925566D01*
X129758863Y-47925566D01*
X129885863Y-47967900D01*
X129970530Y-48052566D01*
X130012863Y-48137233D01*
X130055196Y-48306566D01*
X130055196Y-48433566D01*
X130012863Y-48602900D01*
X129970530Y-48687566D01*
X129885863Y-48772233D01*
X129758863Y-48814566D01*
X129547196Y-48814566D01*
X147019433Y-119045566D02*
X146850100Y-119045566D01*
X146765433Y-119087900D01*
X146723100Y-119130233D01*
X146638433Y-119257233D01*
X146596100Y-119426566D01*
X146596100Y-119765233D01*
X146638433Y-119849900D01*
X146680766Y-119892233D01*
X146765433Y-119934566D01*
X146934766Y-119934566D01*
X147019433Y-119892233D01*
X147061766Y-119849900D01*
X147104100Y-119765233D01*
X147104100Y-119553566D01*
X147061766Y-119468900D01*
X147019433Y-119426566D01*
X146934766Y-119384233D01*
X146765433Y-119384233D01*
X146680766Y-119426566D01*
X146638433Y-119468900D01*
X146596100Y-119553566D01*
X144521766Y-119045566D02*
X144098433Y-119045566D01*
X144056100Y-119468900D01*
X144098433Y-119426566D01*
X144183100Y-119384233D01*
X144394766Y-119384233D01*
X144479433Y-119426566D01*
X144521766Y-119468900D01*
X144564100Y-119553566D01*
X144564100Y-119765233D01*
X144521766Y-119849900D01*
X144479433Y-119892233D01*
X144394766Y-119934566D01*
X144183100Y-119934566D01*
X144098433Y-119892233D01*
X144056100Y-119849900D01*
X141939433Y-119341900D02*
X141939433Y-119934566D01*
X141727766Y-119003233D02*
X141516100Y-119638233D01*
X142066433Y-119638233D01*
X138933766Y-119045566D02*
X139484100Y-119045566D01*
X139187766Y-119384233D01*
X139314766Y-119384233D01*
X139399433Y-119426566D01*
X139441766Y-119468900D01*
X139484100Y-119553566D01*
X139484100Y-119765233D01*
X139441766Y-119849900D01*
X139399433Y-119892233D01*
X139314766Y-119934566D01*
X139060766Y-119934566D01*
X138976100Y-119892233D01*
X138933766Y-119849900D01*
X136436100Y-119130233D02*
X136478433Y-119087900D01*
X136563100Y-119045566D01*
X136774766Y-119045566D01*
X136859433Y-119087900D01*
X136901766Y-119130233D01*
X136944100Y-119214900D01*
X136944100Y-119299566D01*
X136901766Y-119426566D01*
X136393766Y-119934566D01*
X136944100Y-119934566D01*
X134404100Y-119934566D02*
X133896100Y-119934566D01*
X134150100Y-119934566D02*
X134150100Y-119045566D01*
X134065433Y-119172566D01*
X133980766Y-119257233D01*
X133896100Y-119299566D01*
X131567766Y-119045566D02*
X131652433Y-119045566D01*
X131737100Y-119087900D01*
X131779433Y-119130233D01*
X131821766Y-119214900D01*
X131864100Y-119384233D01*
X131864100Y-119595900D01*
X131821766Y-119765233D01*
X131779433Y-119849900D01*
X131737100Y-119892233D01*
X131652433Y-119934566D01*
X131567766Y-119934566D01*
X131483100Y-119892233D01*
X131440766Y-119849900D01*
X131398433Y-119765233D01*
X131356100Y-119595900D01*
X131356100Y-119384233D01*
X131398433Y-119214900D01*
X131440766Y-119130233D01*
X131483100Y-119087900D01*
X131567766Y-119045566D01*
X150787100Y-121979266D02*
X151210433Y-121979266D01*
X150702433Y-122233266D02*
X150998766Y-121344266D01*
X151295100Y-122233266D01*
X151591433Y-122233266D02*
X151591433Y-121344266D01*
X152099433Y-122233266D01*
X152099433Y-121344266D01*
X152480433Y-121979266D02*
X152903766Y-121979266D01*
X152395766Y-122233266D02*
X152692100Y-121344266D01*
X152988433Y-122233266D01*
X153708100Y-122233266D02*
X153284766Y-122233266D01*
X153284766Y-121344266D01*
X154173766Y-121344266D02*
X154343100Y-121344266D01*
X154427766Y-121386600D01*
X154512433Y-121471266D01*
X154554766Y-121640600D01*
X154554766Y-121936933D01*
X154512433Y-122106266D01*
X154427766Y-122190933D01*
X154343100Y-122233266D01*
X154173766Y-122233266D01*
X154089100Y-122190933D01*
X154004433Y-122106266D01*
X153962100Y-121936933D01*
X153962100Y-121640600D01*
X154004433Y-121471266D01*
X154089100Y-121386600D01*
X154173766Y-121344266D01*
X155401433Y-121386600D02*
X155316766Y-121344266D01*
X155189766Y-121344266D01*
X155062766Y-121386600D01*
X154978100Y-121471266D01*
X154935766Y-121555933D01*
X154893433Y-121725266D01*
X154893433Y-121852266D01*
X154935766Y-122021600D01*
X154978100Y-122106266D01*
X155062766Y-122190933D01*
X155189766Y-122233266D01*
X155274433Y-122233266D01*
X155401433Y-122190933D01*
X155443766Y-122148600D01*
X155443766Y-121852266D01*
X155274433Y-121852266D01*
X156502100Y-122233266D02*
X156502100Y-121344266D01*
X156925433Y-122233266D02*
X156925433Y-121344266D01*
X157433433Y-122233266D01*
X157433433Y-121344266D01*
X150829433Y-122855566D02*
X150914100Y-122855566D01*
X150998766Y-122897900D01*
X151041100Y-122940233D01*
X151083433Y-123024900D01*
X151125766Y-123194233D01*
X151125766Y-123405900D01*
X151083433Y-123575233D01*
X151041100Y-123659900D01*
X150998766Y-123702233D01*
X150914100Y-123744566D01*
X150829433Y-123744566D01*
X150744766Y-123702233D01*
X150702433Y-123659900D01*
X150660100Y-123575233D01*
X150617766Y-123405900D01*
X150617766Y-123194233D01*
X150660100Y-123024900D01*
X150702433Y-122940233D01*
X150744766Y-122897900D01*
X150829433Y-122855566D01*
X152057100Y-122855566D02*
X152565100Y-122855566D01*
X152311100Y-123744566D02*
X152311100Y-122855566D01*
X153030766Y-122855566D02*
X153200100Y-122855566D01*
X153284766Y-122897900D01*
X153369433Y-122982566D01*
X153411766Y-123151900D01*
X153411766Y-123448233D01*
X153369433Y-123617566D01*
X153284766Y-123702233D01*
X153200100Y-123744566D01*
X153030766Y-123744566D01*
X152946100Y-123702233D01*
X152861433Y-123617566D01*
X152819100Y-123448233D01*
X152819100Y-123151900D01*
X152861433Y-122982566D01*
X152946100Y-122897900D01*
X153030766Y-122855566D01*
X154470100Y-123405900D02*
X155147433Y-123405900D01*
X154808766Y-123744566D02*
X154808766Y-123067233D01*
X156036433Y-123744566D02*
X155528433Y-123744566D01*
X155782433Y-123744566D02*
X155782433Y-122855566D01*
X155697766Y-122982566D01*
X155613100Y-123067233D01*
X155528433Y-123109566D01*
X156290433Y-122855566D02*
X156586766Y-123744566D01*
X156883100Y-122855566D01*
X157306433Y-123236566D02*
X157221766Y-123194233D01*
X157179433Y-123151900D01*
X157137100Y-123067233D01*
X157137100Y-123024900D01*
X157179433Y-122940233D01*
X157221766Y-122897900D01*
X157306433Y-122855566D01*
X157475766Y-122855566D01*
X157560433Y-122897900D01*
X157602766Y-122940233D01*
X157645100Y-123024900D01*
X157645100Y-123067233D01*
X157602766Y-123151900D01*
X157560433Y-123194233D01*
X157475766Y-123236566D01*
X157306433Y-123236566D01*
X157221766Y-123278900D01*
X157179433Y-123321233D01*
X157137100Y-123405900D01*
X157137100Y-123575233D01*
X157179433Y-123659900D01*
X157221766Y-123702233D01*
X157306433Y-123744566D01*
X157475766Y-123744566D01*
X157560433Y-123702233D01*
X157602766Y-123659900D01*
X157645100Y-123575233D01*
X157645100Y-123405900D01*
X157602766Y-123321233D01*
X157560433Y-123278900D01*
X157475766Y-123236566D01*
X153369433Y-125255866D02*
X153369433Y-124366866D01*
X153665766Y-125001866D01*
X153962100Y-124366866D01*
X153962100Y-125255866D01*
X154343100Y-125001866D02*
X154766433Y-125001866D01*
X154258433Y-125255866D02*
X154554766Y-124366866D01*
X154851100Y-125255866D01*
X155062766Y-124366866D02*
X155655433Y-125255866D01*
X155655433Y-124366866D02*
X155062766Y-125255866D01*
D12*
X136961275Y-126644400D02*
X136864513Y-126596019D01*
X136719370Y-126596019D01*
X136574227Y-126644400D01*
X136477465Y-126741161D01*
X136429084Y-126837923D01*
X136380703Y-127031447D01*
X136380703Y-127176590D01*
X136429084Y-127370114D01*
X136477465Y-127466876D01*
X136574227Y-127563638D01*
X136719370Y-127612019D01*
X136816132Y-127612019D01*
X136961275Y-127563638D01*
X137009656Y-127515257D01*
X137009656Y-127176590D01*
X136816132Y-127176590D01*
X137445084Y-127612019D02*
X137445084Y-126596019D01*
X138025656Y-127612019D01*
X138025656Y-126596019D01*
X138509465Y-127612019D02*
X138509465Y-126596019D01*
X138751370Y-126596019D01*
X138896513Y-126644400D01*
X138993275Y-126741161D01*
X139041656Y-126837923D01*
X139090037Y-127031447D01*
X139090037Y-127176590D01*
X139041656Y-127370114D01*
X138993275Y-127466876D01*
X138896513Y-127563638D01*
X138751370Y-127612019D01*
X138509465Y-127612019D01*
X139283560Y-127708780D02*
X140057656Y-127708780D01*
X140251180Y-127321733D02*
X140734989Y-127321733D01*
X140154418Y-127612019D02*
X140493084Y-126596019D01*
X140831751Y-127612019D01*
X141170418Y-127612019D02*
X141170418Y-126596019D01*
X141412322Y-126596019D01*
X141557465Y-126644400D01*
X141654227Y-126741161D01*
X141702608Y-126837923D01*
X141750989Y-127031447D01*
X141750989Y-127176590D01*
X141702608Y-127370114D01*
X141654227Y-127466876D01*
X141557465Y-127563638D01*
X141412322Y-127612019D01*
X141170418Y-127612019D01*
X142766989Y-127515257D02*
X142718608Y-127563638D01*
X142573465Y-127612019D01*
X142476703Y-127612019D01*
X142331560Y-127563638D01*
X142234799Y-127466876D01*
X142186418Y-127370114D01*
X142138037Y-127176590D01*
X142138037Y-127031447D01*
X142186418Y-126837923D01*
X142234799Y-126741161D01*
X142331560Y-126644400D01*
X142476703Y-126596019D01*
X142573465Y-126596019D01*
X142718608Y-126644400D01*
X142766989Y-126692780D01*
D13*
X119872336Y-51989566D02*
X119872336Y-51100566D01*
X120211003Y-51100566D01*
X120295670Y-51142900D01*
X120338003Y-51185233D01*
X120380336Y-51269900D01*
X120380336Y-51396900D01*
X120338003Y-51481566D01*
X120295670Y-51523900D01*
X120211003Y-51566233D01*
X119872336Y-51566233D01*
X120676670Y-51100566D02*
X120888336Y-51989566D01*
X121057670Y-51354566D01*
X121227003Y-51989566D01*
X121438670Y-51100566D01*
X122285336Y-51989566D02*
X121989003Y-51566233D01*
X121777336Y-51989566D02*
X121777336Y-51100566D01*
X122116003Y-51100566D01*
X122200670Y-51142900D01*
X122243003Y-51185233D01*
X122285336Y-51269900D01*
X122285336Y-51396900D01*
X122243003Y-51481566D01*
X122200670Y-51523900D01*
X122116003Y-51566233D01*
X121777336Y-51566233D01*
X122454670Y-52074233D02*
X123132003Y-52074233D01*
X123640003Y-51523900D02*
X123767003Y-51566233D01*
X123809336Y-51608566D01*
X123851670Y-51693233D01*
X123851670Y-51820233D01*
X123809336Y-51904900D01*
X123767003Y-51947233D01*
X123682336Y-51989566D01*
X123343670Y-51989566D01*
X123343670Y-51100566D01*
X123640003Y-51100566D01*
X123724670Y-51142900D01*
X123767003Y-51185233D01*
X123809336Y-51269900D01*
X123809336Y-51354566D01*
X123767003Y-51439233D01*
X123724670Y-51481566D01*
X123640003Y-51523900D01*
X123343670Y-51523900D01*
X124232670Y-51100566D02*
X124232670Y-51820233D01*
X124275003Y-51904900D01*
X124317336Y-51947233D01*
X124402003Y-51989566D01*
X124571336Y-51989566D01*
X124656003Y-51947233D01*
X124698336Y-51904900D01*
X124740670Y-51820233D01*
X124740670Y-51100566D01*
X125037003Y-51100566D02*
X125545003Y-51100566D01*
X125291003Y-51989566D02*
X125291003Y-51100566D01*
X119872336Y-48814566D02*
X119872336Y-47925566D01*
X120084003Y-47925566D01*
X120211003Y-47967900D01*
X120295670Y-48052566D01*
X120338003Y-48137233D01*
X120380336Y-48306566D01*
X120380336Y-48433566D01*
X120338003Y-48602900D01*
X120295670Y-48687566D01*
X120211003Y-48772233D01*
X120084003Y-48814566D01*
X119872336Y-48814566D01*
X121227003Y-47967900D02*
X121142336Y-47925566D01*
X121015336Y-47925566D01*
X120888336Y-47967900D01*
X120803670Y-48052566D01*
X120761336Y-48137233D01*
X120719003Y-48306566D01*
X120719003Y-48433566D01*
X120761336Y-48602900D01*
X120803670Y-48687566D01*
X120888336Y-48772233D01*
X121015336Y-48814566D01*
X121100003Y-48814566D01*
X121227003Y-48772233D01*
X121269336Y-48729900D01*
X121269336Y-48433566D01*
X121100003Y-48433566D01*
X121650336Y-48814566D02*
X121650336Y-47925566D01*
X122158336Y-48814566D01*
X122158336Y-47925566D01*
X122581670Y-48814566D02*
X122581670Y-47925566D01*
X122793336Y-47925566D01*
X122920336Y-47967900D01*
X123005003Y-48052566D01*
X123047336Y-48137233D01*
X123089670Y-48306566D01*
X123089670Y-48433566D01*
X123047336Y-48602900D01*
X123005003Y-48687566D01*
X122920336Y-48772233D01*
X122793336Y-48814566D01*
X122581670Y-48814566D01*
D12*
X126325448Y-95862019D02*
X126518972Y-95862019D01*
X126615734Y-95813638D01*
X126664115Y-95765257D01*
X126760877Y-95620114D01*
X126809258Y-95426590D01*
X126809258Y-95039542D01*
X126760877Y-94942780D01*
X126712496Y-94894400D01*
X126615734Y-94846019D01*
X126422210Y-94846019D01*
X126325448Y-94894400D01*
X126277067Y-94942780D01*
X126228686Y-95039542D01*
X126228686Y-95281447D01*
X126277067Y-95378209D01*
X126325448Y-95426590D01*
X126422210Y-95474971D01*
X126615734Y-95474971D01*
X126712496Y-95426590D01*
X126760877Y-95378209D01*
X126809258Y-95281447D01*
X127776877Y-95862019D02*
X127196305Y-95862019D01*
X127486591Y-95862019D02*
X127486591Y-94846019D01*
X127389829Y-94991161D01*
X127293067Y-95087923D01*
X127196305Y-95136304D01*
X128357448Y-95281447D02*
X128260686Y-95233066D01*
X128212305Y-95184685D01*
X128163924Y-95087923D01*
X128163924Y-95039542D01*
X128212305Y-94942780D01*
X128260686Y-94894400D01*
X128357448Y-94846019D01*
X128550972Y-94846019D01*
X128647734Y-94894400D01*
X128696115Y-94942780D01*
X128744496Y-95039542D01*
X128744496Y-95087923D01*
X128696115Y-95184685D01*
X128647734Y-95233066D01*
X128550972Y-95281447D01*
X128357448Y-95281447D01*
X128260686Y-95329828D01*
X128212305Y-95378209D01*
X128163924Y-95474971D01*
X128163924Y-95668495D01*
X128212305Y-95765257D01*
X128260686Y-95813638D01*
X128357448Y-95862019D01*
X128550972Y-95862019D01*
X128647734Y-95813638D01*
X128696115Y-95765257D01*
X128744496Y-95668495D01*
X128744496Y-95474971D01*
X128696115Y-95378209D01*
X128647734Y-95329828D01*
X128550972Y-95281447D01*
X126325448Y-98402019D02*
X126518972Y-98402019D01*
X126615734Y-98353638D01*
X126664115Y-98305257D01*
X126760877Y-98160114D01*
X126809258Y-97966590D01*
X126809258Y-97579542D01*
X126760877Y-97482780D01*
X126712496Y-97434400D01*
X126615734Y-97386019D01*
X126422210Y-97386019D01*
X126325448Y-97434400D01*
X126277067Y-97482780D01*
X126228686Y-97579542D01*
X126228686Y-97821447D01*
X126277067Y-97918209D01*
X126325448Y-97966590D01*
X126422210Y-98014971D01*
X126615734Y-98014971D01*
X126712496Y-97966590D01*
X126760877Y-97918209D01*
X126809258Y-97821447D01*
X127196305Y-97482780D02*
X127244686Y-97434400D01*
X127341448Y-97386019D01*
X127583353Y-97386019D01*
X127680115Y-97434400D01*
X127728496Y-97482780D01*
X127776877Y-97579542D01*
X127776877Y-97676304D01*
X127728496Y-97821447D01*
X127147924Y-98402019D01*
X127776877Y-98402019D01*
X128163924Y-97482780D02*
X128212305Y-97434400D01*
X128309067Y-97386019D01*
X128550972Y-97386019D01*
X128647734Y-97434400D01*
X128696115Y-97482780D01*
X128744496Y-97579542D01*
X128744496Y-97676304D01*
X128696115Y-97821447D01*
X128115543Y-98402019D01*
X128744496Y-98402019D01*
X126325448Y-100942019D02*
X126518972Y-100942019D01*
X126615734Y-100893638D01*
X126664115Y-100845257D01*
X126760877Y-100700114D01*
X126809258Y-100506590D01*
X126809258Y-100119542D01*
X126760877Y-100022780D01*
X126712496Y-99974400D01*
X126615734Y-99926019D01*
X126422210Y-99926019D01*
X126325448Y-99974400D01*
X126277067Y-100022780D01*
X126228686Y-100119542D01*
X126228686Y-100361447D01*
X126277067Y-100458209D01*
X126325448Y-100506590D01*
X126422210Y-100554971D01*
X126615734Y-100554971D01*
X126712496Y-100506590D01*
X126760877Y-100458209D01*
X126809258Y-100361447D01*
X127196305Y-100022780D02*
X127244686Y-99974400D01*
X127341448Y-99926019D01*
X127583353Y-99926019D01*
X127680115Y-99974400D01*
X127728496Y-100022780D01*
X127776877Y-100119542D01*
X127776877Y-100216304D01*
X127728496Y-100361447D01*
X127147924Y-100942019D01*
X127776877Y-100942019D01*
X128647734Y-100264685D02*
X128647734Y-100942019D01*
X128405829Y-99877638D02*
X128163924Y-100603352D01*
X128792877Y-100603352D01*
X126325448Y-103482019D02*
X126518972Y-103482019D01*
X126615734Y-103433638D01*
X126664115Y-103385257D01*
X126760877Y-103240114D01*
X126809258Y-103046590D01*
X126809258Y-102659542D01*
X126760877Y-102562780D01*
X126712496Y-102514400D01*
X126615734Y-102466019D01*
X126422210Y-102466019D01*
X126325448Y-102514400D01*
X126277067Y-102562780D01*
X126228686Y-102659542D01*
X126228686Y-102901447D01*
X126277067Y-102998209D01*
X126325448Y-103046590D01*
X126422210Y-103094971D01*
X126615734Y-103094971D01*
X126712496Y-103046590D01*
X126760877Y-102998209D01*
X126809258Y-102901447D01*
X127196305Y-102562780D02*
X127244686Y-102514400D01*
X127341448Y-102466019D01*
X127583353Y-102466019D01*
X127680115Y-102514400D01*
X127728496Y-102562780D01*
X127776877Y-102659542D01*
X127776877Y-102756304D01*
X127728496Y-102901447D01*
X127147924Y-103482019D01*
X127776877Y-103482019D01*
X128647734Y-102466019D02*
X128454210Y-102466019D01*
X128357448Y-102514400D01*
X128309067Y-102562780D01*
X128212305Y-102707923D01*
X128163924Y-102901447D01*
X128163924Y-103288495D01*
X128212305Y-103385257D01*
X128260686Y-103433638D01*
X128357448Y-103482019D01*
X128550972Y-103482019D01*
X128647734Y-103433638D01*
X128696115Y-103385257D01*
X128744496Y-103288495D01*
X128744496Y-103046590D01*
X128696115Y-102949828D01*
X128647734Y-102901447D01*
X128550972Y-102853066D01*
X128357448Y-102853066D01*
X128260686Y-102901447D01*
X128212305Y-102949828D01*
X128163924Y-103046590D01*
X126325448Y-106022019D02*
X126518972Y-106022019D01*
X126615734Y-105973638D01*
X126664115Y-105925257D01*
X126760877Y-105780114D01*
X126809258Y-105586590D01*
X126809258Y-105199542D01*
X126760877Y-105102780D01*
X126712496Y-105054400D01*
X126615734Y-105006019D01*
X126422210Y-105006019D01*
X126325448Y-105054400D01*
X126277067Y-105102780D01*
X126228686Y-105199542D01*
X126228686Y-105441447D01*
X126277067Y-105538209D01*
X126325448Y-105586590D01*
X126422210Y-105634971D01*
X126615734Y-105634971D01*
X126712496Y-105586590D01*
X126760877Y-105538209D01*
X126809258Y-105441447D01*
X127196305Y-105102780D02*
X127244686Y-105054400D01*
X127341448Y-105006019D01*
X127583353Y-105006019D01*
X127680115Y-105054400D01*
X127728496Y-105102780D01*
X127776877Y-105199542D01*
X127776877Y-105296304D01*
X127728496Y-105441447D01*
X127147924Y-106022019D01*
X127776877Y-106022019D01*
X128357448Y-105441447D02*
X128260686Y-105393066D01*
X128212305Y-105344685D01*
X128163924Y-105247923D01*
X128163924Y-105199542D01*
X128212305Y-105102780D01*
X128260686Y-105054400D01*
X128357448Y-105006019D01*
X128550972Y-105006019D01*
X128647734Y-105054400D01*
X128696115Y-105102780D01*
X128744496Y-105199542D01*
X128744496Y-105247923D01*
X128696115Y-105344685D01*
X128647734Y-105393066D01*
X128550972Y-105441447D01*
X128357448Y-105441447D01*
X128260686Y-105489828D01*
X128212305Y-105538209D01*
X128163924Y-105634971D01*
X128163924Y-105828495D01*
X128212305Y-105925257D01*
X128260686Y-105973638D01*
X128357448Y-106022019D01*
X128550972Y-106022019D01*
X128647734Y-105973638D01*
X128696115Y-105925257D01*
X128744496Y-105828495D01*
X128744496Y-105634971D01*
X128696115Y-105538209D01*
X128647734Y-105489828D01*
X128550972Y-105441447D01*
X126325448Y-108562019D02*
X126518972Y-108562019D01*
X126615734Y-108513638D01*
X126664115Y-108465257D01*
X126760877Y-108320114D01*
X126809258Y-108126590D01*
X126809258Y-107739542D01*
X126760877Y-107642780D01*
X126712496Y-107594400D01*
X126615734Y-107546019D01*
X126422210Y-107546019D01*
X126325448Y-107594400D01*
X126277067Y-107642780D01*
X126228686Y-107739542D01*
X126228686Y-107981447D01*
X126277067Y-108078209D01*
X126325448Y-108126590D01*
X126422210Y-108174971D01*
X126615734Y-108174971D01*
X126712496Y-108126590D01*
X126760877Y-108078209D01*
X126809258Y-107981447D01*
X127147924Y-107546019D02*
X127776877Y-107546019D01*
X127438210Y-107933066D01*
X127583353Y-107933066D01*
X127680115Y-107981447D01*
X127728496Y-108029828D01*
X127776877Y-108126590D01*
X127776877Y-108368495D01*
X127728496Y-108465257D01*
X127680115Y-108513638D01*
X127583353Y-108562019D01*
X127293067Y-108562019D01*
X127196305Y-108513638D01*
X127147924Y-108465257D01*
X128405829Y-107546019D02*
X128502591Y-107546019D01*
X128599353Y-107594400D01*
X128647734Y-107642780D01*
X128696115Y-107739542D01*
X128744496Y-107933066D01*
X128744496Y-108174971D01*
X128696115Y-108368495D01*
X128647734Y-108465257D01*
X128599353Y-108513638D01*
X128502591Y-108562019D01*
X128405829Y-108562019D01*
X128309067Y-108513638D01*
X128260686Y-108465257D01*
X128212305Y-108368495D01*
X128163924Y-108174971D01*
X128163924Y-107933066D01*
X128212305Y-107739542D01*
X128260686Y-107642780D01*
X128309067Y-107594400D01*
X128405829Y-107546019D01*
X158067465Y-88242019D02*
X158260989Y-88242019D01*
X158357751Y-88193638D01*
X158406132Y-88145257D01*
X158502894Y-88000114D01*
X158551275Y-87806590D01*
X158551275Y-87419542D01*
X158502894Y-87322780D01*
X158454513Y-87274400D01*
X158357751Y-87226019D01*
X158164227Y-87226019D01*
X158067465Y-87274400D01*
X158019084Y-87322780D01*
X157970703Y-87419542D01*
X157970703Y-87661447D01*
X158019084Y-87758209D01*
X158067465Y-87806590D01*
X158164227Y-87854971D01*
X158357751Y-87854971D01*
X158454513Y-87806590D01*
X158502894Y-87758209D01*
X158551275Y-87661447D01*
X159518894Y-88242019D02*
X158938322Y-88242019D01*
X159228608Y-88242019D02*
X159228608Y-87226019D01*
X159131846Y-87371161D01*
X159035084Y-87467923D01*
X158938322Y-87516304D01*
X160389751Y-87564685D02*
X160389751Y-88242019D01*
X160147846Y-87177638D02*
X159905941Y-87903352D01*
X160534894Y-87903352D01*
X147280448Y-90782019D02*
X147473972Y-90782019D01*
X147570734Y-90733638D01*
X147619115Y-90685257D01*
X147715877Y-90540114D01*
X147764258Y-90346590D01*
X147764258Y-89959542D01*
X147715877Y-89862780D01*
X147667496Y-89814400D01*
X147570734Y-89766019D01*
X147377210Y-89766019D01*
X147280448Y-89814400D01*
X147232067Y-89862780D01*
X147183686Y-89959542D01*
X147183686Y-90201447D01*
X147232067Y-90298209D01*
X147280448Y-90346590D01*
X147377210Y-90394971D01*
X147570734Y-90394971D01*
X147667496Y-90346590D01*
X147715877Y-90298209D01*
X147764258Y-90201447D01*
X148731877Y-90782019D02*
X148151305Y-90782019D01*
X148441591Y-90782019D02*
X148441591Y-89766019D01*
X148344829Y-89911161D01*
X148248067Y-90007923D01*
X148151305Y-90056304D01*
X149070543Y-89766019D02*
X149699496Y-89766019D01*
X149360829Y-90153066D01*
X149505972Y-90153066D01*
X149602734Y-90201447D01*
X149651115Y-90249828D01*
X149699496Y-90346590D01*
X149699496Y-90588495D01*
X149651115Y-90685257D01*
X149602734Y-90733638D01*
X149505972Y-90782019D01*
X149215686Y-90782019D01*
X149118924Y-90733638D01*
X149070543Y-90685257D01*
X147280448Y-88242019D02*
X147473972Y-88242019D01*
X147570734Y-88193638D01*
X147619115Y-88145257D01*
X147715877Y-88000114D01*
X147764258Y-87806590D01*
X147764258Y-87419542D01*
X147715877Y-87322780D01*
X147667496Y-87274400D01*
X147570734Y-87226019D01*
X147377210Y-87226019D01*
X147280448Y-87274400D01*
X147232067Y-87322780D01*
X147183686Y-87419542D01*
X147183686Y-87661447D01*
X147232067Y-87758209D01*
X147280448Y-87806590D01*
X147377210Y-87854971D01*
X147570734Y-87854971D01*
X147667496Y-87806590D01*
X147715877Y-87758209D01*
X147764258Y-87661447D01*
X148731877Y-88242019D02*
X148151305Y-88242019D01*
X148441591Y-88242019D02*
X148441591Y-87226019D01*
X148344829Y-87371161D01*
X148248067Y-87467923D01*
X148151305Y-87516304D01*
X149699496Y-88242019D02*
X149118924Y-88242019D01*
X149409210Y-88242019D02*
X149409210Y-87226019D01*
X149312448Y-87371161D01*
X149215686Y-87467923D01*
X149118924Y-87516304D01*
X147280448Y-80622019D02*
X147473972Y-80622019D01*
X147570734Y-80573638D01*
X147619115Y-80525257D01*
X147715877Y-80380114D01*
X147764258Y-80186590D01*
X147764258Y-79799542D01*
X147715877Y-79702780D01*
X147667496Y-79654400D01*
X147570734Y-79606019D01*
X147377210Y-79606019D01*
X147280448Y-79654400D01*
X147232067Y-79702780D01*
X147183686Y-79799542D01*
X147183686Y-80041447D01*
X147232067Y-80138209D01*
X147280448Y-80186590D01*
X147377210Y-80234971D01*
X147570734Y-80234971D01*
X147667496Y-80186590D01*
X147715877Y-80138209D01*
X147764258Y-80041447D01*
X148731877Y-80622019D02*
X148151305Y-80622019D01*
X148441591Y-80622019D02*
X148441591Y-79606019D01*
X148344829Y-79751161D01*
X148248067Y-79847923D01*
X148151305Y-79896304D01*
X149118924Y-79702780D02*
X149167305Y-79654400D01*
X149264067Y-79606019D01*
X149505972Y-79606019D01*
X149602734Y-79654400D01*
X149651115Y-79702780D01*
X149699496Y-79799542D01*
X149699496Y-79896304D01*
X149651115Y-80041447D01*
X149070543Y-80622019D01*
X149699496Y-80622019D01*
X147377210Y-85121447D02*
X147280448Y-85073066D01*
X147232067Y-85024685D01*
X147183686Y-84927923D01*
X147183686Y-84879542D01*
X147232067Y-84782780D01*
X147280448Y-84734400D01*
X147377210Y-84686019D01*
X147570734Y-84686019D01*
X147667496Y-84734400D01*
X147715877Y-84782780D01*
X147764258Y-84879542D01*
X147764258Y-84927923D01*
X147715877Y-85024685D01*
X147667496Y-85073066D01*
X147570734Y-85121447D01*
X147377210Y-85121447D01*
X147280448Y-85169828D01*
X147232067Y-85218209D01*
X147183686Y-85314971D01*
X147183686Y-85508495D01*
X147232067Y-85605257D01*
X147280448Y-85653638D01*
X147377210Y-85702019D01*
X147570734Y-85702019D01*
X147667496Y-85653638D01*
X147715877Y-85605257D01*
X147764258Y-85508495D01*
X147764258Y-85314971D01*
X147715877Y-85218209D01*
X147667496Y-85169828D01*
X147570734Y-85121447D01*
X148731877Y-85702019D02*
X148151305Y-85702019D01*
X148441591Y-85702019D02*
X148441591Y-84686019D01*
X148344829Y-84831161D01*
X148248067Y-84927923D01*
X148151305Y-84976304D01*
X149312448Y-85121447D02*
X149215686Y-85073066D01*
X149167305Y-85024685D01*
X149118924Y-84927923D01*
X149118924Y-84879542D01*
X149167305Y-84782780D01*
X149215686Y-84734400D01*
X149312448Y-84686019D01*
X149505972Y-84686019D01*
X149602734Y-84734400D01*
X149651115Y-84782780D01*
X149699496Y-84879542D01*
X149699496Y-84927923D01*
X149651115Y-85024685D01*
X149602734Y-85073066D01*
X149505972Y-85121447D01*
X149312448Y-85121447D01*
X149215686Y-85169828D01*
X149167305Y-85218209D01*
X149118924Y-85314971D01*
X149118924Y-85508495D01*
X149167305Y-85605257D01*
X149215686Y-85653638D01*
X149312448Y-85702019D01*
X149505972Y-85702019D01*
X149602734Y-85653638D01*
X149651115Y-85605257D01*
X149699496Y-85508495D01*
X149699496Y-85314971D01*
X149651115Y-85218209D01*
X149602734Y-85169828D01*
X149505972Y-85121447D01*
X147377210Y-82581447D02*
X147280448Y-82533066D01*
X147232067Y-82484685D01*
X147183686Y-82387923D01*
X147183686Y-82339542D01*
X147232067Y-82242780D01*
X147280448Y-82194400D01*
X147377210Y-82146019D01*
X147570734Y-82146019D01*
X147667496Y-82194400D01*
X147715877Y-82242780D01*
X147764258Y-82339542D01*
X147764258Y-82387923D01*
X147715877Y-82484685D01*
X147667496Y-82533066D01*
X147570734Y-82581447D01*
X147377210Y-82581447D01*
X147280448Y-82629828D01*
X147232067Y-82678209D01*
X147183686Y-82774971D01*
X147183686Y-82968495D01*
X147232067Y-83065257D01*
X147280448Y-83113638D01*
X147377210Y-83162019D01*
X147570734Y-83162019D01*
X147667496Y-83113638D01*
X147715877Y-83065257D01*
X147764258Y-82968495D01*
X147764258Y-82774971D01*
X147715877Y-82678209D01*
X147667496Y-82629828D01*
X147570734Y-82581447D01*
X148731877Y-83162019D02*
X148151305Y-83162019D01*
X148441591Y-83162019D02*
X148441591Y-82146019D01*
X148344829Y-82291161D01*
X148248067Y-82387923D01*
X148151305Y-82436304D01*
X149602734Y-82146019D02*
X149409210Y-82146019D01*
X149312448Y-82194400D01*
X149264067Y-82242780D01*
X149167305Y-82387923D01*
X149118924Y-82581447D01*
X149118924Y-82968495D01*
X149167305Y-83065257D01*
X149215686Y-83113638D01*
X149312448Y-83162019D01*
X149505972Y-83162019D01*
X149602734Y-83113638D01*
X149651115Y-83065257D01*
X149699496Y-82968495D01*
X149699496Y-82726590D01*
X149651115Y-82629828D01*
X149602734Y-82581447D01*
X149505972Y-82533066D01*
X149312448Y-82533066D01*
X149215686Y-82581447D01*
X149167305Y-82629828D01*
X149118924Y-82726590D01*
X147377210Y-77501447D02*
X147280448Y-77453066D01*
X147232067Y-77404685D01*
X147183686Y-77307923D01*
X147183686Y-77259542D01*
X147232067Y-77162780D01*
X147280448Y-77114400D01*
X147377210Y-77066019D01*
X147570734Y-77066019D01*
X147667496Y-77114400D01*
X147715877Y-77162780D01*
X147764258Y-77259542D01*
X147764258Y-77307923D01*
X147715877Y-77404685D01*
X147667496Y-77453066D01*
X147570734Y-77501447D01*
X147377210Y-77501447D01*
X147280448Y-77549828D01*
X147232067Y-77598209D01*
X147183686Y-77694971D01*
X147183686Y-77888495D01*
X147232067Y-77985257D01*
X147280448Y-78033638D01*
X147377210Y-78082019D01*
X147570734Y-78082019D01*
X147667496Y-78033638D01*
X147715877Y-77985257D01*
X147764258Y-77888495D01*
X147764258Y-77694971D01*
X147715877Y-77598209D01*
X147667496Y-77549828D01*
X147570734Y-77501447D01*
X148731877Y-78082019D02*
X148151305Y-78082019D01*
X148441591Y-78082019D02*
X148441591Y-77066019D01*
X148344829Y-77211161D01*
X148248067Y-77307923D01*
X148151305Y-77356304D01*
X149602734Y-77404685D02*
X149602734Y-78082019D01*
X149360829Y-77017638D02*
X149118924Y-77743352D01*
X149747877Y-77743352D01*
X147377210Y-74961447D02*
X147280448Y-74913066D01*
X147232067Y-74864685D01*
X147183686Y-74767923D01*
X147183686Y-74719542D01*
X147232067Y-74622780D01*
X147280448Y-74574400D01*
X147377210Y-74526019D01*
X147570734Y-74526019D01*
X147667496Y-74574400D01*
X147715877Y-74622780D01*
X147764258Y-74719542D01*
X147764258Y-74767923D01*
X147715877Y-74864685D01*
X147667496Y-74913066D01*
X147570734Y-74961447D01*
X147377210Y-74961447D01*
X147280448Y-75009828D01*
X147232067Y-75058209D01*
X147183686Y-75154971D01*
X147183686Y-75348495D01*
X147232067Y-75445257D01*
X147280448Y-75493638D01*
X147377210Y-75542019D01*
X147570734Y-75542019D01*
X147667496Y-75493638D01*
X147715877Y-75445257D01*
X147764258Y-75348495D01*
X147764258Y-75154971D01*
X147715877Y-75058209D01*
X147667496Y-75009828D01*
X147570734Y-74961447D01*
X148731877Y-75542019D02*
X148151305Y-75542019D01*
X148441591Y-75542019D02*
X148441591Y-74526019D01*
X148344829Y-74671161D01*
X148248067Y-74767923D01*
X148151305Y-74816304D01*
X149118924Y-74622780D02*
X149167305Y-74574400D01*
X149264067Y-74526019D01*
X149505972Y-74526019D01*
X149602734Y-74574400D01*
X149651115Y-74622780D01*
X149699496Y-74719542D01*
X149699496Y-74816304D01*
X149651115Y-74961447D01*
X149070543Y-75542019D01*
X149699496Y-75542019D01*
X147377210Y-72421447D02*
X147280448Y-72373066D01*
X147232067Y-72324685D01*
X147183686Y-72227923D01*
X147183686Y-72179542D01*
X147232067Y-72082780D01*
X147280448Y-72034400D01*
X147377210Y-71986019D01*
X147570734Y-71986019D01*
X147667496Y-72034400D01*
X147715877Y-72082780D01*
X147764258Y-72179542D01*
X147764258Y-72227923D01*
X147715877Y-72324685D01*
X147667496Y-72373066D01*
X147570734Y-72421447D01*
X147377210Y-72421447D01*
X147280448Y-72469828D01*
X147232067Y-72518209D01*
X147183686Y-72614971D01*
X147183686Y-72808495D01*
X147232067Y-72905257D01*
X147280448Y-72953638D01*
X147377210Y-73002019D01*
X147570734Y-73002019D01*
X147667496Y-72953638D01*
X147715877Y-72905257D01*
X147764258Y-72808495D01*
X147764258Y-72614971D01*
X147715877Y-72518209D01*
X147667496Y-72469828D01*
X147570734Y-72421447D01*
X148731877Y-73002019D02*
X148151305Y-73002019D01*
X148441591Y-73002019D02*
X148441591Y-71986019D01*
X148344829Y-72131161D01*
X148248067Y-72227923D01*
X148151305Y-72276304D01*
X149360829Y-71986019D02*
X149457591Y-71986019D01*
X149554353Y-72034400D01*
X149602734Y-72082780D01*
X149651115Y-72179542D01*
X149699496Y-72373066D01*
X149699496Y-72614971D01*
X149651115Y-72808495D01*
X149602734Y-72905257D01*
X149554353Y-72953638D01*
X149457591Y-73002019D01*
X149360829Y-73002019D01*
X149264067Y-72953638D01*
X149215686Y-72905257D01*
X149167305Y-72808495D01*
X149118924Y-72614971D01*
X149118924Y-72373066D01*
X149167305Y-72179542D01*
X149215686Y-72082780D01*
X149264067Y-72034400D01*
X149360829Y-71986019D01*
X147377210Y-69881447D02*
X147280448Y-69833066D01*
X147232067Y-69784685D01*
X147183686Y-69687923D01*
X147183686Y-69639542D01*
X147232067Y-69542780D01*
X147280448Y-69494400D01*
X147377210Y-69446019D01*
X147570734Y-69446019D01*
X147667496Y-69494400D01*
X147715877Y-69542780D01*
X147764258Y-69639542D01*
X147764258Y-69687923D01*
X147715877Y-69784685D01*
X147667496Y-69833066D01*
X147570734Y-69881447D01*
X147377210Y-69881447D01*
X147280448Y-69929828D01*
X147232067Y-69978209D01*
X147183686Y-70074971D01*
X147183686Y-70268495D01*
X147232067Y-70365257D01*
X147280448Y-70413638D01*
X147377210Y-70462019D01*
X147570734Y-70462019D01*
X147667496Y-70413638D01*
X147715877Y-70365257D01*
X147764258Y-70268495D01*
X147764258Y-70074971D01*
X147715877Y-69978209D01*
X147667496Y-69929828D01*
X147570734Y-69881447D01*
X148393210Y-69446019D02*
X148489972Y-69446019D01*
X148586734Y-69494400D01*
X148635115Y-69542780D01*
X148683496Y-69639542D01*
X148731877Y-69833066D01*
X148731877Y-70074971D01*
X148683496Y-70268495D01*
X148635115Y-70365257D01*
X148586734Y-70413638D01*
X148489972Y-70462019D01*
X148393210Y-70462019D01*
X148296448Y-70413638D01*
X148248067Y-70365257D01*
X148199686Y-70268495D01*
X148151305Y-70074971D01*
X148151305Y-69833066D01*
X148199686Y-69639542D01*
X148248067Y-69542780D01*
X148296448Y-69494400D01*
X148393210Y-69446019D01*
X149312448Y-69881447D02*
X149215686Y-69833066D01*
X149167305Y-69784685D01*
X149118924Y-69687923D01*
X149118924Y-69639542D01*
X149167305Y-69542780D01*
X149215686Y-69494400D01*
X149312448Y-69446019D01*
X149505972Y-69446019D01*
X149602734Y-69494400D01*
X149651115Y-69542780D01*
X149699496Y-69639542D01*
X149699496Y-69687923D01*
X149651115Y-69784685D01*
X149602734Y-69833066D01*
X149505972Y-69881447D01*
X149312448Y-69881447D01*
X149215686Y-69929828D01*
X149167305Y-69978209D01*
X149118924Y-70074971D01*
X149118924Y-70268495D01*
X149167305Y-70365257D01*
X149215686Y-70413638D01*
X149312448Y-70462019D01*
X149505972Y-70462019D01*
X149602734Y-70413638D01*
X149651115Y-70365257D01*
X149699496Y-70268495D01*
X149699496Y-70074971D01*
X149651115Y-69978209D01*
X149602734Y-69929828D01*
X149505972Y-69881447D01*
X158164227Y-85121447D02*
X158067465Y-85073066D01*
X158019084Y-85024685D01*
X157970703Y-84927923D01*
X157970703Y-84879542D01*
X158019084Y-84782780D01*
X158067465Y-84734400D01*
X158164227Y-84686019D01*
X158357751Y-84686019D01*
X158454513Y-84734400D01*
X158502894Y-84782780D01*
X158551275Y-84879542D01*
X158551275Y-84927923D01*
X158502894Y-85024685D01*
X158454513Y-85073066D01*
X158357751Y-85121447D01*
X158164227Y-85121447D01*
X158067465Y-85169828D01*
X158019084Y-85218209D01*
X157970703Y-85314971D01*
X157970703Y-85508495D01*
X158019084Y-85605257D01*
X158067465Y-85653638D01*
X158164227Y-85702019D01*
X158357751Y-85702019D01*
X158454513Y-85653638D01*
X158502894Y-85605257D01*
X158551275Y-85508495D01*
X158551275Y-85314971D01*
X158502894Y-85218209D01*
X158454513Y-85169828D01*
X158357751Y-85121447D01*
X159518894Y-85702019D02*
X158938322Y-85702019D01*
X159228608Y-85702019D02*
X159228608Y-84686019D01*
X159131846Y-84831161D01*
X159035084Y-84927923D01*
X158938322Y-84976304D01*
X160002703Y-85702019D02*
X160196227Y-85702019D01*
X160292989Y-85653638D01*
X160341370Y-85605257D01*
X160438132Y-85460114D01*
X160486513Y-85266590D01*
X160486513Y-84879542D01*
X160438132Y-84782780D01*
X160389751Y-84734400D01*
X160292989Y-84686019D01*
X160099465Y-84686019D01*
X160002703Y-84734400D01*
X159954322Y-84782780D01*
X159905941Y-84879542D01*
X159905941Y-85121447D01*
X159954322Y-85218209D01*
X160002703Y-85266590D01*
X160099465Y-85314971D01*
X160292989Y-85314971D01*
X160389751Y-85266590D01*
X160438132Y-85218209D01*
X160486513Y-85121447D01*
X158164227Y-82581447D02*
X158067465Y-82533066D01*
X158019084Y-82484685D01*
X157970703Y-82387923D01*
X157970703Y-82339542D01*
X158019084Y-82242780D01*
X158067465Y-82194400D01*
X158164227Y-82146019D01*
X158357751Y-82146019D01*
X158454513Y-82194400D01*
X158502894Y-82242780D01*
X158551275Y-82339542D01*
X158551275Y-82387923D01*
X158502894Y-82484685D01*
X158454513Y-82533066D01*
X158357751Y-82581447D01*
X158164227Y-82581447D01*
X158067465Y-82629828D01*
X158019084Y-82678209D01*
X157970703Y-82774971D01*
X157970703Y-82968495D01*
X158019084Y-83065257D01*
X158067465Y-83113638D01*
X158164227Y-83162019D01*
X158357751Y-83162019D01*
X158454513Y-83113638D01*
X158502894Y-83065257D01*
X158551275Y-82968495D01*
X158551275Y-82774971D01*
X158502894Y-82678209D01*
X158454513Y-82629828D01*
X158357751Y-82581447D01*
X159518894Y-83162019D02*
X158938322Y-83162019D01*
X159228608Y-83162019D02*
X159228608Y-82146019D01*
X159131846Y-82291161D01*
X159035084Y-82387923D01*
X158938322Y-82436304D01*
X159857560Y-82146019D02*
X160534894Y-82146019D01*
X160099465Y-83162019D01*
X158164227Y-80041447D02*
X158067465Y-79993066D01*
X158019084Y-79944685D01*
X157970703Y-79847923D01*
X157970703Y-79799542D01*
X158019084Y-79702780D01*
X158067465Y-79654400D01*
X158164227Y-79606019D01*
X158357751Y-79606019D01*
X158454513Y-79654400D01*
X158502894Y-79702780D01*
X158551275Y-79799542D01*
X158551275Y-79847923D01*
X158502894Y-79944685D01*
X158454513Y-79993066D01*
X158357751Y-80041447D01*
X158164227Y-80041447D01*
X158067465Y-80089828D01*
X158019084Y-80138209D01*
X157970703Y-80234971D01*
X157970703Y-80428495D01*
X158019084Y-80525257D01*
X158067465Y-80573638D01*
X158164227Y-80622019D01*
X158357751Y-80622019D01*
X158454513Y-80573638D01*
X158502894Y-80525257D01*
X158551275Y-80428495D01*
X158551275Y-80234971D01*
X158502894Y-80138209D01*
X158454513Y-80089828D01*
X158357751Y-80041447D01*
X159518894Y-80622019D02*
X158938322Y-80622019D01*
X159228608Y-80622019D02*
X159228608Y-79606019D01*
X159131846Y-79751161D01*
X159035084Y-79847923D01*
X158938322Y-79896304D01*
X160438132Y-79606019D02*
X159954322Y-79606019D01*
X159905941Y-80089828D01*
X159954322Y-80041447D01*
X160051084Y-79993066D01*
X160292989Y-79993066D01*
X160389751Y-80041447D01*
X160438132Y-80089828D01*
X160486513Y-80186590D01*
X160486513Y-80428495D01*
X160438132Y-80525257D01*
X160389751Y-80573638D01*
X160292989Y-80622019D01*
X160051084Y-80622019D01*
X159954322Y-80573638D01*
X159905941Y-80525257D01*
X158164227Y-77501447D02*
X158067465Y-77453066D01*
X158019084Y-77404685D01*
X157970703Y-77307923D01*
X157970703Y-77259542D01*
X158019084Y-77162780D01*
X158067465Y-77114400D01*
X158164227Y-77066019D01*
X158357751Y-77066019D01*
X158454513Y-77114400D01*
X158502894Y-77162780D01*
X158551275Y-77259542D01*
X158551275Y-77307923D01*
X158502894Y-77404685D01*
X158454513Y-77453066D01*
X158357751Y-77501447D01*
X158164227Y-77501447D01*
X158067465Y-77549828D01*
X158019084Y-77598209D01*
X157970703Y-77694971D01*
X157970703Y-77888495D01*
X158019084Y-77985257D01*
X158067465Y-78033638D01*
X158164227Y-78082019D01*
X158357751Y-78082019D01*
X158454513Y-78033638D01*
X158502894Y-77985257D01*
X158551275Y-77888495D01*
X158551275Y-77694971D01*
X158502894Y-77598209D01*
X158454513Y-77549828D01*
X158357751Y-77501447D01*
X159518894Y-78082019D02*
X158938322Y-78082019D01*
X159228608Y-78082019D02*
X159228608Y-77066019D01*
X159131846Y-77211161D01*
X159035084Y-77307923D01*
X158938322Y-77356304D01*
X159857560Y-77066019D02*
X160486513Y-77066019D01*
X160147846Y-77453066D01*
X160292989Y-77453066D01*
X160389751Y-77501447D01*
X160438132Y-77549828D01*
X160486513Y-77646590D01*
X160486513Y-77888495D01*
X160438132Y-77985257D01*
X160389751Y-78033638D01*
X160292989Y-78082019D01*
X160002703Y-78082019D01*
X159905941Y-78033638D01*
X159857560Y-77985257D01*
X158164227Y-74961447D02*
X158067465Y-74913066D01*
X158019084Y-74864685D01*
X157970703Y-74767923D01*
X157970703Y-74719542D01*
X158019084Y-74622780D01*
X158067465Y-74574400D01*
X158164227Y-74526019D01*
X158357751Y-74526019D01*
X158454513Y-74574400D01*
X158502894Y-74622780D01*
X158551275Y-74719542D01*
X158551275Y-74767923D01*
X158502894Y-74864685D01*
X158454513Y-74913066D01*
X158357751Y-74961447D01*
X158164227Y-74961447D01*
X158067465Y-75009828D01*
X158019084Y-75058209D01*
X157970703Y-75154971D01*
X157970703Y-75348495D01*
X158019084Y-75445257D01*
X158067465Y-75493638D01*
X158164227Y-75542019D01*
X158357751Y-75542019D01*
X158454513Y-75493638D01*
X158502894Y-75445257D01*
X158551275Y-75348495D01*
X158551275Y-75154971D01*
X158502894Y-75058209D01*
X158454513Y-75009828D01*
X158357751Y-74961447D01*
X159518894Y-75542019D02*
X158938322Y-75542019D01*
X159228608Y-75542019D02*
X159228608Y-74526019D01*
X159131846Y-74671161D01*
X159035084Y-74767923D01*
X158938322Y-74816304D01*
X160486513Y-75542019D02*
X159905941Y-75542019D01*
X160196227Y-75542019D02*
X160196227Y-74526019D01*
X160099465Y-74671161D01*
X160002703Y-74767923D01*
X159905941Y-74816304D01*
X158164227Y-72421447D02*
X158067465Y-72373066D01*
X158019084Y-72324685D01*
X157970703Y-72227923D01*
X157970703Y-72179542D01*
X158019084Y-72082780D01*
X158067465Y-72034400D01*
X158164227Y-71986019D01*
X158357751Y-71986019D01*
X158454513Y-72034400D01*
X158502894Y-72082780D01*
X158551275Y-72179542D01*
X158551275Y-72227923D01*
X158502894Y-72324685D01*
X158454513Y-72373066D01*
X158357751Y-72421447D01*
X158164227Y-72421447D01*
X158067465Y-72469828D01*
X158019084Y-72518209D01*
X157970703Y-72614971D01*
X157970703Y-72808495D01*
X158019084Y-72905257D01*
X158067465Y-72953638D01*
X158164227Y-73002019D01*
X158357751Y-73002019D01*
X158454513Y-72953638D01*
X158502894Y-72905257D01*
X158551275Y-72808495D01*
X158551275Y-72614971D01*
X158502894Y-72518209D01*
X158454513Y-72469828D01*
X158357751Y-72421447D01*
X159180227Y-71986019D02*
X159276989Y-71986019D01*
X159373751Y-72034400D01*
X159422132Y-72082780D01*
X159470513Y-72179542D01*
X159518894Y-72373066D01*
X159518894Y-72614971D01*
X159470513Y-72808495D01*
X159422132Y-72905257D01*
X159373751Y-72953638D01*
X159276989Y-73002019D01*
X159180227Y-73002019D01*
X159083465Y-72953638D01*
X159035084Y-72905257D01*
X158986703Y-72808495D01*
X158938322Y-72614971D01*
X158938322Y-72373066D01*
X158986703Y-72179542D01*
X159035084Y-72082780D01*
X159083465Y-72034400D01*
X159180227Y-71986019D01*
X160002703Y-73002019D02*
X160196227Y-73002019D01*
X160292989Y-72953638D01*
X160341370Y-72905257D01*
X160438132Y-72760114D01*
X160486513Y-72566590D01*
X160486513Y-72179542D01*
X160438132Y-72082780D01*
X160389751Y-72034400D01*
X160292989Y-71986019D01*
X160099465Y-71986019D01*
X160002703Y-72034400D01*
X159954322Y-72082780D01*
X159905941Y-72179542D01*
X159905941Y-72421447D01*
X159954322Y-72518209D01*
X160002703Y-72566590D01*
X160099465Y-72614971D01*
X160292989Y-72614971D01*
X160389751Y-72566590D01*
X160438132Y-72518209D01*
X160486513Y-72421447D01*
X158164227Y-69881447D02*
X158067465Y-69833066D01*
X158019084Y-69784685D01*
X157970703Y-69687923D01*
X157970703Y-69639542D01*
X158019084Y-69542780D01*
X158067465Y-69494400D01*
X158164227Y-69446019D01*
X158357751Y-69446019D01*
X158454513Y-69494400D01*
X158502894Y-69542780D01*
X158551275Y-69639542D01*
X158551275Y-69687923D01*
X158502894Y-69784685D01*
X158454513Y-69833066D01*
X158357751Y-69881447D01*
X158164227Y-69881447D01*
X158067465Y-69929828D01*
X158019084Y-69978209D01*
X157970703Y-70074971D01*
X157970703Y-70268495D01*
X158019084Y-70365257D01*
X158067465Y-70413638D01*
X158164227Y-70462019D01*
X158357751Y-70462019D01*
X158454513Y-70413638D01*
X158502894Y-70365257D01*
X158551275Y-70268495D01*
X158551275Y-70074971D01*
X158502894Y-69978209D01*
X158454513Y-69929828D01*
X158357751Y-69881447D01*
X159180227Y-69446019D02*
X159276989Y-69446019D01*
X159373751Y-69494400D01*
X159422132Y-69542780D01*
X159470513Y-69639542D01*
X159518894Y-69833066D01*
X159518894Y-70074971D01*
X159470513Y-70268495D01*
X159422132Y-70365257D01*
X159373751Y-70413638D01*
X159276989Y-70462019D01*
X159180227Y-70462019D01*
X159083465Y-70413638D01*
X159035084Y-70365257D01*
X158986703Y-70268495D01*
X158938322Y-70074971D01*
X158938322Y-69833066D01*
X158986703Y-69639542D01*
X159035084Y-69542780D01*
X159083465Y-69494400D01*
X159180227Y-69446019D01*
X159857560Y-69446019D02*
X160534894Y-69446019D01*
X160099465Y-70462019D01*
X158019084Y-100409828D02*
X158357751Y-100409828D01*
X158502894Y-100942019D02*
X158019084Y-100942019D01*
X158019084Y-99926019D01*
X158502894Y-99926019D01*
X158938322Y-100942019D02*
X158938322Y-99926019D01*
X159518894Y-100942019D01*
X159518894Y-99926019D01*
X158019084Y-98402019D02*
X158019084Y-97386019D01*
X158260989Y-97386019D01*
X158406132Y-97434400D01*
X158502894Y-97531161D01*
X158551275Y-97627923D01*
X158599656Y-97821447D01*
X158599656Y-97966590D01*
X158551275Y-98160114D01*
X158502894Y-98256876D01*
X158406132Y-98353638D01*
X158260989Y-98402019D01*
X158019084Y-98402019D01*
X159567275Y-97434400D02*
X159470513Y-97386019D01*
X159325370Y-97386019D01*
X159180227Y-97434400D01*
X159083465Y-97531161D01*
X159035084Y-97627923D01*
X158986703Y-97821447D01*
X158986703Y-97966590D01*
X159035084Y-98160114D01*
X159083465Y-98256876D01*
X159180227Y-98353638D01*
X159325370Y-98402019D01*
X159422132Y-98402019D01*
X159567275Y-98353638D01*
X159615656Y-98305257D01*
X159615656Y-97966590D01*
X159422132Y-97966590D01*
X160051084Y-98402019D02*
X160051084Y-97386019D01*
X160631656Y-98402019D01*
X160631656Y-97386019D01*
X161115465Y-98402019D02*
X161115465Y-97386019D01*
X161357370Y-97386019D01*
X161502513Y-97434400D01*
X161599275Y-97531161D01*
X161647656Y-97627923D01*
X161696037Y-97821447D01*
X161696037Y-97966590D01*
X161647656Y-98160114D01*
X161599275Y-98256876D01*
X161502513Y-98353638D01*
X161357370Y-98402019D01*
X161115465Y-98402019D01*
X158019084Y-95862019D02*
X158019084Y-94846019D01*
X158260989Y-94846019D01*
X158406132Y-94894400D01*
X158502894Y-94991161D01*
X158551275Y-95087923D01*
X158599656Y-95281447D01*
X158599656Y-95426590D01*
X158551275Y-95620114D01*
X158502894Y-95716876D01*
X158406132Y-95813638D01*
X158260989Y-95862019D01*
X158019084Y-95862019D01*
X159567275Y-94894400D02*
X159470513Y-94846019D01*
X159325370Y-94846019D01*
X159180227Y-94894400D01*
X159083465Y-94991161D01*
X159035084Y-95087923D01*
X158986703Y-95281447D01*
X158986703Y-95426590D01*
X159035084Y-95620114D01*
X159083465Y-95716876D01*
X159180227Y-95813638D01*
X159325370Y-95862019D01*
X159422132Y-95862019D01*
X159567275Y-95813638D01*
X159615656Y-95765257D01*
X159615656Y-95426590D01*
X159422132Y-95426590D01*
X160051084Y-95862019D02*
X160051084Y-94846019D01*
X160631656Y-95862019D01*
X160631656Y-94846019D01*
X161115465Y-95862019D02*
X161115465Y-94846019D01*
X161357370Y-94846019D01*
X161502513Y-94894400D01*
X161599275Y-94991161D01*
X161647656Y-95087923D01*
X161696037Y-95281447D01*
X161696037Y-95426590D01*
X161647656Y-95620114D01*
X161599275Y-95716876D01*
X161502513Y-95813638D01*
X161357370Y-95862019D01*
X161115465Y-95862019D01*
X158019084Y-93322019D02*
X158019084Y-92306019D01*
X158260989Y-92306019D01*
X158406132Y-92354400D01*
X158502894Y-92451161D01*
X158551275Y-92547923D01*
X158599656Y-92741447D01*
X158599656Y-92886590D01*
X158551275Y-93080114D01*
X158502894Y-93176876D01*
X158406132Y-93273638D01*
X158260989Y-93322019D01*
X158019084Y-93322019D01*
X159567275Y-92354400D02*
X159470513Y-92306019D01*
X159325370Y-92306019D01*
X159180227Y-92354400D01*
X159083465Y-92451161D01*
X159035084Y-92547923D01*
X158986703Y-92741447D01*
X158986703Y-92886590D01*
X159035084Y-93080114D01*
X159083465Y-93176876D01*
X159180227Y-93273638D01*
X159325370Y-93322019D01*
X159422132Y-93322019D01*
X159567275Y-93273638D01*
X159615656Y-93225257D01*
X159615656Y-92886590D01*
X159422132Y-92886590D01*
X160051084Y-93322019D02*
X160051084Y-92306019D01*
X160631656Y-93322019D01*
X160631656Y-92306019D01*
X161115465Y-93322019D02*
X161115465Y-92306019D01*
X161357370Y-92306019D01*
X161502513Y-92354400D01*
X161599275Y-92451161D01*
X161647656Y-92547923D01*
X161696037Y-92741447D01*
X161696037Y-92886590D01*
X161647656Y-93080114D01*
X161599275Y-93176876D01*
X161502513Y-93273638D01*
X161357370Y-93322019D01*
X161115465Y-93322019D01*
X158019084Y-90782019D02*
X158019084Y-89766019D01*
X158260989Y-89766019D01*
X158406132Y-89814400D01*
X158502894Y-89911161D01*
X158551275Y-90007923D01*
X158599656Y-90201447D01*
X158599656Y-90346590D01*
X158551275Y-90540114D01*
X158502894Y-90636876D01*
X158406132Y-90733638D01*
X158260989Y-90782019D01*
X158019084Y-90782019D01*
X159567275Y-89814400D02*
X159470513Y-89766019D01*
X159325370Y-89766019D01*
X159180227Y-89814400D01*
X159083465Y-89911161D01*
X159035084Y-90007923D01*
X158986703Y-90201447D01*
X158986703Y-90346590D01*
X159035084Y-90540114D01*
X159083465Y-90636876D01*
X159180227Y-90733638D01*
X159325370Y-90782019D01*
X159422132Y-90782019D01*
X159567275Y-90733638D01*
X159615656Y-90685257D01*
X159615656Y-90346590D01*
X159422132Y-90346590D01*
X160051084Y-90782019D02*
X160051084Y-89766019D01*
X160631656Y-90782019D01*
X160631656Y-89766019D01*
X161115465Y-90782019D02*
X161115465Y-89766019D01*
X161357370Y-89766019D01*
X161502513Y-89814400D01*
X161599275Y-89911161D01*
X161647656Y-90007923D01*
X161696037Y-90201447D01*
X161696037Y-90346590D01*
X161647656Y-90540114D01*
X161599275Y-90636876D01*
X161502513Y-90733638D01*
X161357370Y-90782019D01*
X161115465Y-90782019D01*
X146022543Y-100942019D02*
X146022543Y-99926019D01*
X146264448Y-99926019D01*
X146409591Y-99974400D01*
X146506353Y-100071161D01*
X146554734Y-100167923D01*
X146603115Y-100361447D01*
X146603115Y-100506590D01*
X146554734Y-100700114D01*
X146506353Y-100796876D01*
X146409591Y-100893638D01*
X146264448Y-100942019D01*
X146022543Y-100942019D01*
X147570734Y-99974400D02*
X147473972Y-99926019D01*
X147328829Y-99926019D01*
X147183686Y-99974400D01*
X147086924Y-100071161D01*
X147038543Y-100167923D01*
X146990162Y-100361447D01*
X146990162Y-100506590D01*
X147038543Y-100700114D01*
X147086924Y-100796876D01*
X147183686Y-100893638D01*
X147328829Y-100942019D01*
X147425591Y-100942019D01*
X147570734Y-100893638D01*
X147619115Y-100845257D01*
X147619115Y-100506590D01*
X147425591Y-100506590D01*
X148054543Y-100942019D02*
X148054543Y-99926019D01*
X148635115Y-100942019D01*
X148635115Y-99926019D01*
X149118924Y-100942019D02*
X149118924Y-99926019D01*
X149360829Y-99926019D01*
X149505972Y-99974400D01*
X149602734Y-100071161D01*
X149651115Y-100167923D01*
X149699496Y-100361447D01*
X149699496Y-100506590D01*
X149651115Y-100700114D01*
X149602734Y-100796876D01*
X149505972Y-100893638D01*
X149360829Y-100942019D01*
X149118924Y-100942019D01*
X146022543Y-98402019D02*
X146022543Y-97386019D01*
X146264448Y-97386019D01*
X146409591Y-97434400D01*
X146506353Y-97531161D01*
X146554734Y-97627923D01*
X146603115Y-97821447D01*
X146603115Y-97966590D01*
X146554734Y-98160114D01*
X146506353Y-98256876D01*
X146409591Y-98353638D01*
X146264448Y-98402019D01*
X146022543Y-98402019D01*
X147570734Y-97434400D02*
X147473972Y-97386019D01*
X147328829Y-97386019D01*
X147183686Y-97434400D01*
X147086924Y-97531161D01*
X147038543Y-97627923D01*
X146990162Y-97821447D01*
X146990162Y-97966590D01*
X147038543Y-98160114D01*
X147086924Y-98256876D01*
X147183686Y-98353638D01*
X147328829Y-98402019D01*
X147425591Y-98402019D01*
X147570734Y-98353638D01*
X147619115Y-98305257D01*
X147619115Y-97966590D01*
X147425591Y-97966590D01*
X148054543Y-98402019D02*
X148054543Y-97386019D01*
X148635115Y-98402019D01*
X148635115Y-97386019D01*
X149118924Y-98402019D02*
X149118924Y-97386019D01*
X149360829Y-97386019D01*
X149505972Y-97434400D01*
X149602734Y-97531161D01*
X149651115Y-97627923D01*
X149699496Y-97821447D01*
X149699496Y-97966590D01*
X149651115Y-98160114D01*
X149602734Y-98256876D01*
X149505972Y-98353638D01*
X149360829Y-98402019D01*
X149118924Y-98402019D01*
X146022543Y-95862019D02*
X146022543Y-94846019D01*
X146264448Y-94846019D01*
X146409591Y-94894400D01*
X146506353Y-94991161D01*
X146554734Y-95087923D01*
X146603115Y-95281447D01*
X146603115Y-95426590D01*
X146554734Y-95620114D01*
X146506353Y-95716876D01*
X146409591Y-95813638D01*
X146264448Y-95862019D01*
X146022543Y-95862019D01*
X147570734Y-94894400D02*
X147473972Y-94846019D01*
X147328829Y-94846019D01*
X147183686Y-94894400D01*
X147086924Y-94991161D01*
X147038543Y-95087923D01*
X146990162Y-95281447D01*
X146990162Y-95426590D01*
X147038543Y-95620114D01*
X147086924Y-95716876D01*
X147183686Y-95813638D01*
X147328829Y-95862019D01*
X147425591Y-95862019D01*
X147570734Y-95813638D01*
X147619115Y-95765257D01*
X147619115Y-95426590D01*
X147425591Y-95426590D01*
X148054543Y-95862019D02*
X148054543Y-94846019D01*
X148635115Y-95862019D01*
X148635115Y-94846019D01*
X149118924Y-95862019D02*
X149118924Y-94846019D01*
X149360829Y-94846019D01*
X149505972Y-94894400D01*
X149602734Y-94991161D01*
X149651115Y-95087923D01*
X149699496Y-95281447D01*
X149699496Y-95426590D01*
X149651115Y-95620114D01*
X149602734Y-95716876D01*
X149505972Y-95813638D01*
X149360829Y-95862019D01*
X149118924Y-95862019D01*
X146022543Y-93322019D02*
X146022543Y-92306019D01*
X146264448Y-92306019D01*
X146409591Y-92354400D01*
X146506353Y-92451161D01*
X146554734Y-92547923D01*
X146603115Y-92741447D01*
X146603115Y-92886590D01*
X146554734Y-93080114D01*
X146506353Y-93176876D01*
X146409591Y-93273638D01*
X146264448Y-93322019D01*
X146022543Y-93322019D01*
X147570734Y-92354400D02*
X147473972Y-92306019D01*
X147328829Y-92306019D01*
X147183686Y-92354400D01*
X147086924Y-92451161D01*
X147038543Y-92547923D01*
X146990162Y-92741447D01*
X146990162Y-92886590D01*
X147038543Y-93080114D01*
X147086924Y-93176876D01*
X147183686Y-93273638D01*
X147328829Y-93322019D01*
X147425591Y-93322019D01*
X147570734Y-93273638D01*
X147619115Y-93225257D01*
X147619115Y-92886590D01*
X147425591Y-92886590D01*
X148054543Y-93322019D02*
X148054543Y-92306019D01*
X148635115Y-93322019D01*
X148635115Y-92306019D01*
X149118924Y-93322019D02*
X149118924Y-92306019D01*
X149360829Y-92306019D01*
X149505972Y-92354400D01*
X149602734Y-92451161D01*
X149651115Y-92547923D01*
X149699496Y-92741447D01*
X149699496Y-92886590D01*
X149651115Y-93080114D01*
X149602734Y-93176876D01*
X149505972Y-93273638D01*
X149360829Y-93322019D01*
X149118924Y-93322019D01*
X125067543Y-93322019D02*
X125067543Y-92306019D01*
X125309448Y-92306019D01*
X125454591Y-92354400D01*
X125551353Y-92451161D01*
X125599734Y-92547923D01*
X125648115Y-92741447D01*
X125648115Y-92886590D01*
X125599734Y-93080114D01*
X125551353Y-93176876D01*
X125454591Y-93273638D01*
X125309448Y-93322019D01*
X125067543Y-93322019D01*
X126615734Y-92354400D02*
X126518972Y-92306019D01*
X126373829Y-92306019D01*
X126228686Y-92354400D01*
X126131924Y-92451161D01*
X126083543Y-92547923D01*
X126035162Y-92741447D01*
X126035162Y-92886590D01*
X126083543Y-93080114D01*
X126131924Y-93176876D01*
X126228686Y-93273638D01*
X126373829Y-93322019D01*
X126470591Y-93322019D01*
X126615734Y-93273638D01*
X126664115Y-93225257D01*
X126664115Y-92886590D01*
X126470591Y-92886590D01*
X127099543Y-93322019D02*
X127099543Y-92306019D01*
X127680115Y-93322019D01*
X127680115Y-92306019D01*
X128163924Y-93322019D02*
X128163924Y-92306019D01*
X128405829Y-92306019D01*
X128550972Y-92354400D01*
X128647734Y-92451161D01*
X128696115Y-92547923D01*
X128744496Y-92741447D01*
X128744496Y-92886590D01*
X128696115Y-93080114D01*
X128647734Y-93176876D01*
X128550972Y-93273638D01*
X128405829Y-93322019D01*
X128163924Y-93322019D01*
X125067543Y-90782019D02*
X125067543Y-89766019D01*
X125309448Y-89766019D01*
X125454591Y-89814400D01*
X125551353Y-89911161D01*
X125599734Y-90007923D01*
X125648115Y-90201447D01*
X125648115Y-90346590D01*
X125599734Y-90540114D01*
X125551353Y-90636876D01*
X125454591Y-90733638D01*
X125309448Y-90782019D01*
X125067543Y-90782019D01*
X126615734Y-89814400D02*
X126518972Y-89766019D01*
X126373829Y-89766019D01*
X126228686Y-89814400D01*
X126131924Y-89911161D01*
X126083543Y-90007923D01*
X126035162Y-90201447D01*
X126035162Y-90346590D01*
X126083543Y-90540114D01*
X126131924Y-90636876D01*
X126228686Y-90733638D01*
X126373829Y-90782019D01*
X126470591Y-90782019D01*
X126615734Y-90733638D01*
X126664115Y-90685257D01*
X126664115Y-90346590D01*
X126470591Y-90346590D01*
X127099543Y-90782019D02*
X127099543Y-89766019D01*
X127680115Y-90782019D01*
X127680115Y-89766019D01*
X128163924Y-90782019D02*
X128163924Y-89766019D01*
X128405829Y-89766019D01*
X128550972Y-89814400D01*
X128647734Y-89911161D01*
X128696115Y-90007923D01*
X128744496Y-90201447D01*
X128744496Y-90346590D01*
X128696115Y-90540114D01*
X128647734Y-90636876D01*
X128550972Y-90733638D01*
X128405829Y-90782019D01*
X128163924Y-90782019D01*
X125067543Y-88242019D02*
X125067543Y-87226019D01*
X125309448Y-87226019D01*
X125454591Y-87274400D01*
X125551353Y-87371161D01*
X125599734Y-87467923D01*
X125648115Y-87661447D01*
X125648115Y-87806590D01*
X125599734Y-88000114D01*
X125551353Y-88096876D01*
X125454591Y-88193638D01*
X125309448Y-88242019D01*
X125067543Y-88242019D01*
X126615734Y-87274400D02*
X126518972Y-87226019D01*
X126373829Y-87226019D01*
X126228686Y-87274400D01*
X126131924Y-87371161D01*
X126083543Y-87467923D01*
X126035162Y-87661447D01*
X126035162Y-87806590D01*
X126083543Y-88000114D01*
X126131924Y-88096876D01*
X126228686Y-88193638D01*
X126373829Y-88242019D01*
X126470591Y-88242019D01*
X126615734Y-88193638D01*
X126664115Y-88145257D01*
X126664115Y-87806590D01*
X126470591Y-87806590D01*
X127099543Y-88242019D02*
X127099543Y-87226019D01*
X127680115Y-88242019D01*
X127680115Y-87226019D01*
X128163924Y-88242019D02*
X128163924Y-87226019D01*
X128405829Y-87226019D01*
X128550972Y-87274400D01*
X128647734Y-87371161D01*
X128696115Y-87467923D01*
X128744496Y-87661447D01*
X128744496Y-87806590D01*
X128696115Y-88000114D01*
X128647734Y-88096876D01*
X128550972Y-88193638D01*
X128405829Y-88242019D01*
X128163924Y-88242019D01*
X125067543Y-85702019D02*
X125067543Y-84686019D01*
X125309448Y-84686019D01*
X125454591Y-84734400D01*
X125551353Y-84831161D01*
X125599734Y-84927923D01*
X125648115Y-85121447D01*
X125648115Y-85266590D01*
X125599734Y-85460114D01*
X125551353Y-85556876D01*
X125454591Y-85653638D01*
X125309448Y-85702019D01*
X125067543Y-85702019D01*
X126615734Y-84734400D02*
X126518972Y-84686019D01*
X126373829Y-84686019D01*
X126228686Y-84734400D01*
X126131924Y-84831161D01*
X126083543Y-84927923D01*
X126035162Y-85121447D01*
X126035162Y-85266590D01*
X126083543Y-85460114D01*
X126131924Y-85556876D01*
X126228686Y-85653638D01*
X126373829Y-85702019D01*
X126470591Y-85702019D01*
X126615734Y-85653638D01*
X126664115Y-85605257D01*
X126664115Y-85266590D01*
X126470591Y-85266590D01*
X127099543Y-85702019D02*
X127099543Y-84686019D01*
X127680115Y-85702019D01*
X127680115Y-84686019D01*
X128163924Y-85702019D02*
X128163924Y-84686019D01*
X128405829Y-84686019D01*
X128550972Y-84734400D01*
X128647734Y-84831161D01*
X128696115Y-84927923D01*
X128744496Y-85121447D01*
X128744496Y-85266590D01*
X128696115Y-85460114D01*
X128647734Y-85556876D01*
X128550972Y-85653638D01*
X128405829Y-85702019D01*
X128163924Y-85702019D01*
X127196305Y-82629828D02*
X127534972Y-82629828D01*
X127680115Y-83162019D02*
X127196305Y-83162019D01*
X127196305Y-82146019D01*
X127680115Y-82146019D01*
X128115543Y-83162019D02*
X128115543Y-82146019D01*
X128696115Y-83162019D01*
X128696115Y-82146019D01*
X137064084Y-83162019D02*
X137064084Y-82146019D01*
X137305989Y-82146019D01*
X137451132Y-82194400D01*
X137547894Y-82291161D01*
X137596275Y-82387923D01*
X137644656Y-82581447D01*
X137644656Y-82726590D01*
X137596275Y-82920114D01*
X137547894Y-83016876D01*
X137451132Y-83113638D01*
X137305989Y-83162019D01*
X137064084Y-83162019D01*
X138612275Y-82194400D02*
X138515513Y-82146019D01*
X138370370Y-82146019D01*
X138225227Y-82194400D01*
X138128465Y-82291161D01*
X138080084Y-82387923D01*
X138031703Y-82581447D01*
X138031703Y-82726590D01*
X138080084Y-82920114D01*
X138128465Y-83016876D01*
X138225227Y-83113638D01*
X138370370Y-83162019D01*
X138467132Y-83162019D01*
X138612275Y-83113638D01*
X138660656Y-83065257D01*
X138660656Y-82726590D01*
X138467132Y-82726590D01*
X139096084Y-83162019D02*
X139096084Y-82146019D01*
X139676656Y-83162019D01*
X139676656Y-82146019D01*
X140160465Y-83162019D02*
X140160465Y-82146019D01*
X140402370Y-82146019D01*
X140547513Y-82194400D01*
X140644275Y-82291161D01*
X140692656Y-82387923D01*
X140741037Y-82581447D01*
X140741037Y-82726590D01*
X140692656Y-82920114D01*
X140644275Y-83016876D01*
X140547513Y-83113638D01*
X140402370Y-83162019D01*
X140160465Y-83162019D01*
X137064084Y-85702019D02*
X137064084Y-84686019D01*
X137305989Y-84686019D01*
X137451132Y-84734400D01*
X137547894Y-84831161D01*
X137596275Y-84927923D01*
X137644656Y-85121447D01*
X137644656Y-85266590D01*
X137596275Y-85460114D01*
X137547894Y-85556876D01*
X137451132Y-85653638D01*
X137305989Y-85702019D01*
X137064084Y-85702019D01*
X138612275Y-84734400D02*
X138515513Y-84686019D01*
X138370370Y-84686019D01*
X138225227Y-84734400D01*
X138128465Y-84831161D01*
X138080084Y-84927923D01*
X138031703Y-85121447D01*
X138031703Y-85266590D01*
X138080084Y-85460114D01*
X138128465Y-85556876D01*
X138225227Y-85653638D01*
X138370370Y-85702019D01*
X138467132Y-85702019D01*
X138612275Y-85653638D01*
X138660656Y-85605257D01*
X138660656Y-85266590D01*
X138467132Y-85266590D01*
X139096084Y-85702019D02*
X139096084Y-84686019D01*
X139676656Y-85702019D01*
X139676656Y-84686019D01*
X140160465Y-85702019D02*
X140160465Y-84686019D01*
X140402370Y-84686019D01*
X140547513Y-84734400D01*
X140644275Y-84831161D01*
X140692656Y-84927923D01*
X140741037Y-85121447D01*
X140741037Y-85266590D01*
X140692656Y-85460114D01*
X140644275Y-85556876D01*
X140547513Y-85653638D01*
X140402370Y-85702019D01*
X140160465Y-85702019D01*
X137064084Y-88242019D02*
X137064084Y-87226019D01*
X137305989Y-87226019D01*
X137451132Y-87274400D01*
X137547894Y-87371161D01*
X137596275Y-87467923D01*
X137644656Y-87661447D01*
X137644656Y-87806590D01*
X137596275Y-88000114D01*
X137547894Y-88096876D01*
X137451132Y-88193638D01*
X137305989Y-88242019D01*
X137064084Y-88242019D01*
X138612275Y-87274400D02*
X138515513Y-87226019D01*
X138370370Y-87226019D01*
X138225227Y-87274400D01*
X138128465Y-87371161D01*
X138080084Y-87467923D01*
X138031703Y-87661447D01*
X138031703Y-87806590D01*
X138080084Y-88000114D01*
X138128465Y-88096876D01*
X138225227Y-88193638D01*
X138370370Y-88242019D01*
X138467132Y-88242019D01*
X138612275Y-88193638D01*
X138660656Y-88145257D01*
X138660656Y-87806590D01*
X138467132Y-87806590D01*
X139096084Y-88242019D02*
X139096084Y-87226019D01*
X139676656Y-88242019D01*
X139676656Y-87226019D01*
X140160465Y-88242019D02*
X140160465Y-87226019D01*
X140402370Y-87226019D01*
X140547513Y-87274400D01*
X140644275Y-87371161D01*
X140692656Y-87467923D01*
X140741037Y-87661447D01*
X140741037Y-87806590D01*
X140692656Y-88000114D01*
X140644275Y-88096876D01*
X140547513Y-88193638D01*
X140402370Y-88242019D01*
X140160465Y-88242019D01*
X137064084Y-90782019D02*
X137064084Y-89766019D01*
X137305989Y-89766019D01*
X137451132Y-89814400D01*
X137547894Y-89911161D01*
X137596275Y-90007923D01*
X137644656Y-90201447D01*
X137644656Y-90346590D01*
X137596275Y-90540114D01*
X137547894Y-90636876D01*
X137451132Y-90733638D01*
X137305989Y-90782019D01*
X137064084Y-90782019D01*
X138612275Y-89814400D02*
X138515513Y-89766019D01*
X138370370Y-89766019D01*
X138225227Y-89814400D01*
X138128465Y-89911161D01*
X138080084Y-90007923D01*
X138031703Y-90201447D01*
X138031703Y-90346590D01*
X138080084Y-90540114D01*
X138128465Y-90636876D01*
X138225227Y-90733638D01*
X138370370Y-90782019D01*
X138467132Y-90782019D01*
X138612275Y-90733638D01*
X138660656Y-90685257D01*
X138660656Y-90346590D01*
X138467132Y-90346590D01*
X139096084Y-90782019D02*
X139096084Y-89766019D01*
X139676656Y-90782019D01*
X139676656Y-89766019D01*
X140160465Y-90782019D02*
X140160465Y-89766019D01*
X140402370Y-89766019D01*
X140547513Y-89814400D01*
X140644275Y-89911161D01*
X140692656Y-90007923D01*
X140741037Y-90201447D01*
X140741037Y-90346590D01*
X140692656Y-90540114D01*
X140644275Y-90636876D01*
X140547513Y-90733638D01*
X140402370Y-90782019D01*
X140160465Y-90782019D01*
X137112465Y-93322019D02*
X137305989Y-93322019D01*
X137402751Y-93273638D01*
X137451132Y-93225257D01*
X137547894Y-93080114D01*
X137596275Y-92886590D01*
X137596275Y-92499542D01*
X137547894Y-92402780D01*
X137499513Y-92354400D01*
X137402751Y-92306019D01*
X137209227Y-92306019D01*
X137112465Y-92354400D01*
X137064084Y-92402780D01*
X137015703Y-92499542D01*
X137015703Y-92741447D01*
X137064084Y-92838209D01*
X137112465Y-92886590D01*
X137209227Y-92934971D01*
X137402751Y-92934971D01*
X137499513Y-92886590D01*
X137547894Y-92838209D01*
X137596275Y-92741447D01*
X138563894Y-93322019D02*
X137983322Y-93322019D01*
X138273608Y-93322019D02*
X138273608Y-92306019D01*
X138176846Y-92451161D01*
X138080084Y-92547923D01*
X137983322Y-92596304D01*
X139483132Y-92306019D02*
X138999322Y-92306019D01*
X138950941Y-92789828D01*
X138999322Y-92741447D01*
X139096084Y-92693066D01*
X139337989Y-92693066D01*
X139434751Y-92741447D01*
X139483132Y-92789828D01*
X139531513Y-92886590D01*
X139531513Y-93128495D01*
X139483132Y-93225257D01*
X139434751Y-93273638D01*
X139337989Y-93322019D01*
X139096084Y-93322019D01*
X138999322Y-93273638D01*
X138950941Y-93225257D01*
X137112465Y-95862019D02*
X137305989Y-95862019D01*
X137402751Y-95813638D01*
X137451132Y-95765257D01*
X137547894Y-95620114D01*
X137596275Y-95426590D01*
X137596275Y-95039542D01*
X137547894Y-94942780D01*
X137499513Y-94894400D01*
X137402751Y-94846019D01*
X137209227Y-94846019D01*
X137112465Y-94894400D01*
X137064084Y-94942780D01*
X137015703Y-95039542D01*
X137015703Y-95281447D01*
X137064084Y-95378209D01*
X137112465Y-95426590D01*
X137209227Y-95474971D01*
X137402751Y-95474971D01*
X137499513Y-95426590D01*
X137547894Y-95378209D01*
X137596275Y-95281447D01*
X138563894Y-95862019D02*
X137983322Y-95862019D01*
X138273608Y-95862019D02*
X138273608Y-94846019D01*
X138176846Y-94991161D01*
X138080084Y-95087923D01*
X137983322Y-95136304D01*
X138902560Y-94846019D02*
X139579894Y-94846019D01*
X139144465Y-95862019D01*
X137112465Y-98402019D02*
X137305989Y-98402019D01*
X137402751Y-98353638D01*
X137451132Y-98305257D01*
X137547894Y-98160114D01*
X137596275Y-97966590D01*
X137596275Y-97579542D01*
X137547894Y-97482780D01*
X137499513Y-97434400D01*
X137402751Y-97386019D01*
X137209227Y-97386019D01*
X137112465Y-97434400D01*
X137064084Y-97482780D01*
X137015703Y-97579542D01*
X137015703Y-97821447D01*
X137064084Y-97918209D01*
X137112465Y-97966590D01*
X137209227Y-98014971D01*
X137402751Y-98014971D01*
X137499513Y-97966590D01*
X137547894Y-97918209D01*
X137596275Y-97821447D01*
X137983322Y-97482780D02*
X138031703Y-97434400D01*
X138128465Y-97386019D01*
X138370370Y-97386019D01*
X138467132Y-97434400D01*
X138515513Y-97482780D01*
X138563894Y-97579542D01*
X138563894Y-97676304D01*
X138515513Y-97821447D01*
X137934941Y-98402019D01*
X138563894Y-98402019D01*
X139531513Y-98402019D02*
X138950941Y-98402019D01*
X139241227Y-98402019D02*
X139241227Y-97386019D01*
X139144465Y-97531161D01*
X139047703Y-97627923D01*
X138950941Y-97676304D01*
X137112465Y-100942019D02*
X137305989Y-100942019D01*
X137402751Y-100893638D01*
X137451132Y-100845257D01*
X137547894Y-100700114D01*
X137596275Y-100506590D01*
X137596275Y-100119542D01*
X137547894Y-100022780D01*
X137499513Y-99974400D01*
X137402751Y-99926019D01*
X137209227Y-99926019D01*
X137112465Y-99974400D01*
X137064084Y-100022780D01*
X137015703Y-100119542D01*
X137015703Y-100361447D01*
X137064084Y-100458209D01*
X137112465Y-100506590D01*
X137209227Y-100554971D01*
X137402751Y-100554971D01*
X137499513Y-100506590D01*
X137547894Y-100458209D01*
X137596275Y-100361447D01*
X137983322Y-100022780D02*
X138031703Y-99974400D01*
X138128465Y-99926019D01*
X138370370Y-99926019D01*
X138467132Y-99974400D01*
X138515513Y-100022780D01*
X138563894Y-100119542D01*
X138563894Y-100216304D01*
X138515513Y-100361447D01*
X137934941Y-100942019D01*
X138563894Y-100942019D01*
X138902560Y-99926019D02*
X139531513Y-99926019D01*
X139192846Y-100313066D01*
X139337989Y-100313066D01*
X139434751Y-100361447D01*
X139483132Y-100409828D01*
X139531513Y-100506590D01*
X139531513Y-100748495D01*
X139483132Y-100845257D01*
X139434751Y-100893638D01*
X139337989Y-100942019D01*
X139047703Y-100942019D01*
X138950941Y-100893638D01*
X138902560Y-100845257D01*
X137112465Y-103482019D02*
X137305989Y-103482019D01*
X137402751Y-103433638D01*
X137451132Y-103385257D01*
X137547894Y-103240114D01*
X137596275Y-103046590D01*
X137596275Y-102659542D01*
X137547894Y-102562780D01*
X137499513Y-102514400D01*
X137402751Y-102466019D01*
X137209227Y-102466019D01*
X137112465Y-102514400D01*
X137064084Y-102562780D01*
X137015703Y-102659542D01*
X137015703Y-102901447D01*
X137064084Y-102998209D01*
X137112465Y-103046590D01*
X137209227Y-103094971D01*
X137402751Y-103094971D01*
X137499513Y-103046590D01*
X137547894Y-102998209D01*
X137596275Y-102901447D01*
X137983322Y-102562780D02*
X138031703Y-102514400D01*
X138128465Y-102466019D01*
X138370370Y-102466019D01*
X138467132Y-102514400D01*
X138515513Y-102562780D01*
X138563894Y-102659542D01*
X138563894Y-102756304D01*
X138515513Y-102901447D01*
X137934941Y-103482019D01*
X138563894Y-103482019D01*
X139483132Y-102466019D02*
X138999322Y-102466019D01*
X138950941Y-102949828D01*
X138999322Y-102901447D01*
X139096084Y-102853066D01*
X139337989Y-102853066D01*
X139434751Y-102901447D01*
X139483132Y-102949828D01*
X139531513Y-103046590D01*
X139531513Y-103288495D01*
X139483132Y-103385257D01*
X139434751Y-103433638D01*
X139337989Y-103482019D01*
X139096084Y-103482019D01*
X138999322Y-103433638D01*
X138950941Y-103385257D01*
X137112465Y-106022019D02*
X137305989Y-106022019D01*
X137402751Y-105973638D01*
X137451132Y-105925257D01*
X137547894Y-105780114D01*
X137596275Y-105586590D01*
X137596275Y-105199542D01*
X137547894Y-105102780D01*
X137499513Y-105054400D01*
X137402751Y-105006019D01*
X137209227Y-105006019D01*
X137112465Y-105054400D01*
X137064084Y-105102780D01*
X137015703Y-105199542D01*
X137015703Y-105441447D01*
X137064084Y-105538209D01*
X137112465Y-105586590D01*
X137209227Y-105634971D01*
X137402751Y-105634971D01*
X137499513Y-105586590D01*
X137547894Y-105538209D01*
X137596275Y-105441447D01*
X137983322Y-105102780D02*
X138031703Y-105054400D01*
X138128465Y-105006019D01*
X138370370Y-105006019D01*
X138467132Y-105054400D01*
X138515513Y-105102780D01*
X138563894Y-105199542D01*
X138563894Y-105296304D01*
X138515513Y-105441447D01*
X137934941Y-106022019D01*
X138563894Y-106022019D01*
X138902560Y-105006019D02*
X139579894Y-105006019D01*
X139144465Y-106022019D01*
X137112465Y-108562019D02*
X137305989Y-108562019D01*
X137402751Y-108513638D01*
X137451132Y-108465257D01*
X137547894Y-108320114D01*
X137596275Y-108126590D01*
X137596275Y-107739542D01*
X137547894Y-107642780D01*
X137499513Y-107594400D01*
X137402751Y-107546019D01*
X137209227Y-107546019D01*
X137112465Y-107594400D01*
X137064084Y-107642780D01*
X137015703Y-107739542D01*
X137015703Y-107981447D01*
X137064084Y-108078209D01*
X137112465Y-108126590D01*
X137209227Y-108174971D01*
X137402751Y-108174971D01*
X137499513Y-108126590D01*
X137547894Y-108078209D01*
X137596275Y-107981447D01*
X137983322Y-107642780D02*
X138031703Y-107594400D01*
X138128465Y-107546019D01*
X138370370Y-107546019D01*
X138467132Y-107594400D01*
X138515513Y-107642780D01*
X138563894Y-107739542D01*
X138563894Y-107836304D01*
X138515513Y-107981447D01*
X137934941Y-108562019D01*
X138563894Y-108562019D01*
X139047703Y-108562019D02*
X139241227Y-108562019D01*
X139337989Y-108513638D01*
X139386370Y-108465257D01*
X139483132Y-108320114D01*
X139531513Y-108126590D01*
X139531513Y-107739542D01*
X139483132Y-107642780D01*
X139434751Y-107594400D01*
X139337989Y-107546019D01*
X139144465Y-107546019D01*
X139047703Y-107594400D01*
X138999322Y-107642780D01*
X138950941Y-107739542D01*
X138950941Y-107981447D01*
X138999322Y-108078209D01*
X139047703Y-108126590D01*
X139144465Y-108174971D01*
X139337989Y-108174971D01*
X139434751Y-108126590D01*
X139483132Y-108078209D01*
X139531513Y-107981447D01*
X137112465Y-113642019D02*
X137305989Y-113642019D01*
X137402751Y-113593638D01*
X137451132Y-113545257D01*
X137547894Y-113400114D01*
X137596275Y-113206590D01*
X137596275Y-112819542D01*
X137547894Y-112722780D01*
X137499513Y-112674400D01*
X137402751Y-112626019D01*
X137209227Y-112626019D01*
X137112465Y-112674400D01*
X137064084Y-112722780D01*
X137015703Y-112819542D01*
X137015703Y-113061447D01*
X137064084Y-113158209D01*
X137112465Y-113206590D01*
X137209227Y-113254971D01*
X137402751Y-113254971D01*
X137499513Y-113206590D01*
X137547894Y-113158209D01*
X137596275Y-113061447D01*
X138563894Y-113642019D02*
X137983322Y-113642019D01*
X138273608Y-113642019D02*
X138273608Y-112626019D01*
X138176846Y-112771161D01*
X138080084Y-112867923D01*
X137983322Y-112916304D01*
X139434751Y-112626019D02*
X139241227Y-112626019D01*
X139144465Y-112674400D01*
X139096084Y-112722780D01*
X138999322Y-112867923D01*
X138950941Y-113061447D01*
X138950941Y-113448495D01*
X138999322Y-113545257D01*
X139047703Y-113593638D01*
X139144465Y-113642019D01*
X139337989Y-113642019D01*
X139434751Y-113593638D01*
X139483132Y-113545257D01*
X139531513Y-113448495D01*
X139531513Y-113206590D01*
X139483132Y-113109828D01*
X139434751Y-113061447D01*
X139337989Y-113013066D01*
X139144465Y-113013066D01*
X139047703Y-113061447D01*
X138999322Y-113109828D01*
X138950941Y-113206590D01*
X137112465Y-111102019D02*
X137305989Y-111102019D01*
X137402751Y-111053638D01*
X137451132Y-111005257D01*
X137547894Y-110860114D01*
X137596275Y-110666590D01*
X137596275Y-110279542D01*
X137547894Y-110182780D01*
X137499513Y-110134400D01*
X137402751Y-110086019D01*
X137209227Y-110086019D01*
X137112465Y-110134400D01*
X137064084Y-110182780D01*
X137015703Y-110279542D01*
X137015703Y-110521447D01*
X137064084Y-110618209D01*
X137112465Y-110666590D01*
X137209227Y-110714971D01*
X137402751Y-110714971D01*
X137499513Y-110666590D01*
X137547894Y-110618209D01*
X137596275Y-110521447D01*
X138467132Y-110424685D02*
X138467132Y-111102019D01*
X138225227Y-110037638D02*
X137983322Y-110763352D01*
X138612275Y-110763352D01*
X139531513Y-111102019D02*
X138950941Y-111102019D01*
X139241227Y-111102019D02*
X139241227Y-110086019D01*
X139144465Y-110231161D01*
X139047703Y-110327923D01*
X138950941Y-110376304D01*
X126325448Y-111102019D02*
X126518972Y-111102019D01*
X126615734Y-111053638D01*
X126664115Y-111005257D01*
X126760877Y-110860114D01*
X126809258Y-110666590D01*
X126809258Y-110279542D01*
X126760877Y-110182780D01*
X126712496Y-110134400D01*
X126615734Y-110086019D01*
X126422210Y-110086019D01*
X126325448Y-110134400D01*
X126277067Y-110182780D01*
X126228686Y-110279542D01*
X126228686Y-110521447D01*
X126277067Y-110618209D01*
X126325448Y-110666590D01*
X126422210Y-110714971D01*
X126615734Y-110714971D01*
X126712496Y-110666590D01*
X126760877Y-110618209D01*
X126809258Y-110521447D01*
X127147924Y-110086019D02*
X127776877Y-110086019D01*
X127438210Y-110473066D01*
X127583353Y-110473066D01*
X127680115Y-110521447D01*
X127728496Y-110569828D01*
X127776877Y-110666590D01*
X127776877Y-110908495D01*
X127728496Y-111005257D01*
X127680115Y-111053638D01*
X127583353Y-111102019D01*
X127293067Y-111102019D01*
X127196305Y-111053638D01*
X127147924Y-111005257D01*
X128744496Y-111102019D02*
X128163924Y-111102019D01*
X128454210Y-111102019D02*
X128454210Y-110086019D01*
X128357448Y-110231161D01*
X128260686Y-110327923D01*
X128163924Y-110376304D01*
X126325448Y-113642019D02*
X126518972Y-113642019D01*
X126615734Y-113593638D01*
X126664115Y-113545257D01*
X126760877Y-113400114D01*
X126809258Y-113206590D01*
X126809258Y-112819542D01*
X126760877Y-112722780D01*
X126712496Y-112674400D01*
X126615734Y-112626019D01*
X126422210Y-112626019D01*
X126325448Y-112674400D01*
X126277067Y-112722780D01*
X126228686Y-112819542D01*
X126228686Y-113061447D01*
X126277067Y-113158209D01*
X126325448Y-113206590D01*
X126422210Y-113254971D01*
X126615734Y-113254971D01*
X126712496Y-113206590D01*
X126760877Y-113158209D01*
X126809258Y-113061447D01*
X127680115Y-112964685D02*
X127680115Y-113642019D01*
X127438210Y-112577638D02*
X127196305Y-113303352D01*
X127825258Y-113303352D01*
X128163924Y-112722780D02*
X128212305Y-112674400D01*
X128309067Y-112626019D01*
X128550972Y-112626019D01*
X128647734Y-112674400D01*
X128696115Y-112722780D01*
X128744496Y-112819542D01*
X128744496Y-112916304D01*
X128696115Y-113061447D01*
X128115543Y-113642019D01*
X128744496Y-113642019D01*
X137064084Y-116182019D02*
X137064084Y-115166019D01*
X137451132Y-115166019D01*
X137547894Y-115214400D01*
X137596275Y-115262780D01*
X137644656Y-115359542D01*
X137644656Y-115504685D01*
X137596275Y-115601447D01*
X137547894Y-115649828D01*
X137451132Y-115698209D01*
X137064084Y-115698209D01*
X138080084Y-116182019D02*
X138080084Y-115504685D01*
X138080084Y-115166019D02*
X138031703Y-115214400D01*
X138080084Y-115262780D01*
X138128465Y-115214400D01*
X138080084Y-115166019D01*
X138080084Y-115262780D01*
X138563894Y-115504685D02*
X138563894Y-116182019D01*
X138563894Y-115601447D02*
X138612275Y-115553066D01*
X138709037Y-115504685D01*
X138854180Y-115504685D01*
X138950941Y-115553066D01*
X138999322Y-115649828D01*
X138999322Y-116182019D01*
X140789418Y-116182019D02*
X140208846Y-116182019D01*
X140499132Y-116182019D02*
X140499132Y-115166019D01*
X140402370Y-115311161D01*
X140305608Y-115407923D01*
X140208846Y-115456304D01*
X145974162Y-67922019D02*
X145974162Y-66906019D01*
X146361210Y-66906019D01*
X146457972Y-66954400D01*
X146506353Y-67002780D01*
X146554734Y-67099542D01*
X146554734Y-67244685D01*
X146506353Y-67341447D01*
X146457972Y-67389828D01*
X146361210Y-67438209D01*
X145974162Y-67438209D01*
X146990162Y-67922019D02*
X146990162Y-67244685D01*
X146990162Y-66906019D02*
X146941781Y-66954400D01*
X146990162Y-67002780D01*
X147038543Y-66954400D01*
X146990162Y-66906019D01*
X146990162Y-67002780D01*
X147473972Y-67244685D02*
X147473972Y-67922019D01*
X147473972Y-67341447D02*
X147522353Y-67293066D01*
X147619115Y-67244685D01*
X147764258Y-67244685D01*
X147861020Y-67293066D01*
X147909400Y-67389828D01*
X147909400Y-67922019D01*
X149699496Y-67922019D02*
X149118924Y-67922019D01*
X149409210Y-67922019D02*
X149409210Y-66906019D01*
X149312448Y-67051161D01*
X149215686Y-67147923D01*
X149118924Y-67196304D01*
X129395703Y-72953638D02*
X129540846Y-73002019D01*
X129782751Y-73002019D01*
X129879513Y-72953638D01*
X129927894Y-72905257D01*
X129976275Y-72808495D01*
X129976275Y-72711733D01*
X129927894Y-72614971D01*
X129879513Y-72566590D01*
X129782751Y-72518209D01*
X129589227Y-72469828D01*
X129492465Y-72421447D01*
X129444084Y-72373066D01*
X129395703Y-72276304D01*
X129395703Y-72179542D01*
X129444084Y-72082780D01*
X129492465Y-72034400D01*
X129589227Y-71986019D01*
X129831132Y-71986019D01*
X129976275Y-72034400D01*
X130605227Y-72518209D02*
X130605227Y-73002019D01*
X130266560Y-71986019D02*
X130605227Y-72518209D01*
X130943894Y-71986019D01*
X131234180Y-72953638D02*
X131379322Y-73002019D01*
X131621227Y-73002019D01*
X131717989Y-72953638D01*
X131766370Y-72905257D01*
X131814751Y-72808495D01*
X131814751Y-72711733D01*
X131766370Y-72614971D01*
X131717989Y-72566590D01*
X131621227Y-72518209D01*
X131427703Y-72469828D01*
X131330941Y-72421447D01*
X131282560Y-72373066D01*
X131234180Y-72276304D01*
X131234180Y-72179542D01*
X131282560Y-72082780D01*
X131330941Y-72034400D01*
X131427703Y-71986019D01*
X131669608Y-71986019D01*
X131814751Y-72034400D01*
X132008275Y-73098780D02*
X132782370Y-73098780D01*
X133604846Y-73002019D02*
X133266180Y-72518209D01*
X133024275Y-73002019D02*
X133024275Y-71986019D01*
X133411322Y-71986019D01*
X133508084Y-72034400D01*
X133556465Y-72082780D01*
X133604846Y-72179542D01*
X133604846Y-72324685D01*
X133556465Y-72421447D01*
X133508084Y-72469828D01*
X133411322Y-72518209D01*
X133024275Y-72518209D01*
X134040275Y-72469828D02*
X134378941Y-72469828D01*
X134524084Y-73002019D02*
X134040275Y-73002019D01*
X134040275Y-71986019D01*
X134524084Y-71986019D01*
X134911132Y-72953638D02*
X135056275Y-73002019D01*
X135298180Y-73002019D01*
X135394941Y-72953638D01*
X135443322Y-72905257D01*
X135491703Y-72808495D01*
X135491703Y-72711733D01*
X135443322Y-72614971D01*
X135394941Y-72566590D01*
X135298180Y-72518209D01*
X135104656Y-72469828D01*
X135007894Y-72421447D01*
X134959513Y-72373066D01*
X134911132Y-72276304D01*
X134911132Y-72179542D01*
X134959513Y-72082780D01*
X135007894Y-72034400D01*
X135104656Y-71986019D01*
X135346560Y-71986019D01*
X135491703Y-72034400D01*
X135927132Y-72469828D02*
X136265799Y-72469828D01*
X136410941Y-73002019D02*
X135927132Y-73002019D01*
X135927132Y-71986019D01*
X136410941Y-71986019D01*
X136701227Y-71986019D02*
X137281799Y-71986019D01*
X136991513Y-73002019D02*
X136991513Y-71986019D01*
X137620465Y-73002019D02*
X137620465Y-71986019D01*
X138201037Y-73002019D01*
X138201037Y-71986019D01*
X129395703Y-70413638D02*
X129540846Y-70462019D01*
X129782751Y-70462019D01*
X129879513Y-70413638D01*
X129927894Y-70365257D01*
X129976275Y-70268495D01*
X129976275Y-70171733D01*
X129927894Y-70074971D01*
X129879513Y-70026590D01*
X129782751Y-69978209D01*
X129589227Y-69929828D01*
X129492465Y-69881447D01*
X129444084Y-69833066D01*
X129395703Y-69736304D01*
X129395703Y-69639542D01*
X129444084Y-69542780D01*
X129492465Y-69494400D01*
X129589227Y-69446019D01*
X129831132Y-69446019D01*
X129976275Y-69494400D01*
X130605227Y-69978209D02*
X130605227Y-70462019D01*
X130266560Y-69446019D02*
X130605227Y-69978209D01*
X130943894Y-69446019D01*
X131234180Y-70413638D02*
X131379322Y-70462019D01*
X131621227Y-70462019D01*
X131717989Y-70413638D01*
X131766370Y-70365257D01*
X131814751Y-70268495D01*
X131814751Y-70171733D01*
X131766370Y-70074971D01*
X131717989Y-70026590D01*
X131621227Y-69978209D01*
X131427703Y-69929828D01*
X131330941Y-69881447D01*
X131282560Y-69833066D01*
X131234180Y-69736304D01*
X131234180Y-69639542D01*
X131282560Y-69542780D01*
X131330941Y-69494400D01*
X131427703Y-69446019D01*
X131669608Y-69446019D01*
X131814751Y-69494400D01*
X132008275Y-70558780D02*
X132782370Y-70558780D01*
X133024275Y-70074971D02*
X133798370Y-70074971D01*
X133411322Y-70462019D02*
X133411322Y-69687923D01*
X134765989Y-69446019D02*
X134282180Y-69446019D01*
X134233799Y-69929828D01*
X134282180Y-69881447D01*
X134378941Y-69833066D01*
X134620846Y-69833066D01*
X134717608Y-69881447D01*
X134765989Y-69929828D01*
X134814370Y-70026590D01*
X134814370Y-70268495D01*
X134765989Y-70365257D01*
X134717608Y-70413638D01*
X134620846Y-70462019D01*
X134378941Y-70462019D01*
X134282180Y-70413638D01*
X134233799Y-70365257D01*
X135153037Y-69784685D02*
X135394941Y-70462019D01*
X135636846Y-69784685D01*
X129298941Y-66906019D02*
X129637608Y-67922019D01*
X129976275Y-66906019D01*
X130314941Y-67922019D02*
X130314941Y-66906019D01*
X130556846Y-66906019D01*
X130701989Y-66954400D01*
X130798751Y-67051161D01*
X130847132Y-67147923D01*
X130895513Y-67341447D01*
X130895513Y-67486590D01*
X130847132Y-67680114D01*
X130798751Y-67776876D01*
X130701989Y-67873638D01*
X130556846Y-67922019D01*
X130314941Y-67922019D01*
X131330941Y-67922019D02*
X131330941Y-66906019D01*
X131572846Y-66906019D01*
X131717989Y-66954400D01*
X131814751Y-67051161D01*
X131863132Y-67147923D01*
X131911513Y-67341447D01*
X131911513Y-67486590D01*
X131863132Y-67680114D01*
X131814751Y-67776876D01*
X131717989Y-67873638D01*
X131572846Y-67922019D01*
X131330941Y-67922019D01*
X132105037Y-68018780D02*
X132879132Y-68018780D01*
X133121037Y-67534971D02*
X133895132Y-67534971D01*
X133508084Y-67922019D02*
X133508084Y-67147923D01*
X134862751Y-66906019D02*
X134378941Y-66906019D01*
X134330560Y-67389828D01*
X134378941Y-67341447D01*
X134475703Y-67293066D01*
X134717608Y-67293066D01*
X134814370Y-67341447D01*
X134862751Y-67389828D01*
X134911132Y-67486590D01*
X134911132Y-67728495D01*
X134862751Y-67825257D01*
X134814370Y-67873638D01*
X134717608Y-67922019D01*
X134475703Y-67922019D01*
X134378941Y-67873638D01*
X134330560Y-67825257D01*
X135249799Y-67244685D02*
X135491703Y-67922019D01*
X135733608Y-67244685D01*
X129444084Y-64994971D02*
X130218180Y-64994971D01*
X129831132Y-65382019D02*
X129831132Y-64607923D01*
X130605227Y-64366019D02*
X131234180Y-64366019D01*
X130895513Y-64753066D01*
X131040656Y-64753066D01*
X131137418Y-64801447D01*
X131185799Y-64849828D01*
X131234180Y-64946590D01*
X131234180Y-65188495D01*
X131185799Y-65285257D01*
X131137418Y-65333638D01*
X131040656Y-65382019D01*
X130750370Y-65382019D01*
X130653608Y-65333638D01*
X130605227Y-65285257D01*
X131572846Y-64704685D02*
X131814751Y-65382019D01*
X132056656Y-64704685D01*
X132346941Y-64366019D02*
X132975894Y-64366019D01*
X132637227Y-64753066D01*
X132782370Y-64753066D01*
X132879132Y-64801447D01*
X132927513Y-64849828D01*
X132975894Y-64946590D01*
X132975894Y-65188495D01*
X132927513Y-65285257D01*
X132879132Y-65333638D01*
X132782370Y-65382019D01*
X132492084Y-65382019D01*
X132395322Y-65333638D01*
X132346941Y-65285257D01*
X129444084Y-62842019D02*
X129444084Y-61826019D01*
X129685989Y-61826019D01*
X129831132Y-61874400D01*
X129927894Y-61971161D01*
X129976275Y-62067923D01*
X130024656Y-62261447D01*
X130024656Y-62406590D01*
X129976275Y-62600114D01*
X129927894Y-62696876D01*
X129831132Y-62793638D01*
X129685989Y-62842019D01*
X129444084Y-62842019D01*
X130992275Y-61874400D02*
X130895513Y-61826019D01*
X130750370Y-61826019D01*
X130605227Y-61874400D01*
X130508465Y-61971161D01*
X130460084Y-62067923D01*
X130411703Y-62261447D01*
X130411703Y-62406590D01*
X130460084Y-62600114D01*
X130508465Y-62696876D01*
X130605227Y-62793638D01*
X130750370Y-62842019D01*
X130847132Y-62842019D01*
X130992275Y-62793638D01*
X131040656Y-62745257D01*
X131040656Y-62406590D01*
X130847132Y-62406590D01*
X131476084Y-62842019D02*
X131476084Y-61826019D01*
X132056656Y-62842019D01*
X132056656Y-61826019D01*
X132540465Y-62842019D02*
X132540465Y-61826019D01*
X132782370Y-61826019D01*
X132927513Y-61874400D01*
X133024275Y-61971161D01*
X133072656Y-62067923D01*
X133121037Y-62261447D01*
X133121037Y-62406590D01*
X133072656Y-62600114D01*
X133024275Y-62696876D01*
X132927513Y-62793638D01*
X132782370Y-62842019D01*
X132540465Y-62842019D01*
X130678766Y-80622019D02*
X130678766Y-79606019D01*
X131065814Y-79606019D01*
X131162576Y-79654400D01*
X131210957Y-79702780D01*
X131259338Y-79799542D01*
X131259338Y-79944685D01*
X131210957Y-80041447D01*
X131162576Y-80089828D01*
X131065814Y-80138209D01*
X130678766Y-80138209D01*
X131839909Y-80622019D02*
X131743147Y-80573638D01*
X131694766Y-80525257D01*
X131646385Y-80428495D01*
X131646385Y-80138209D01*
X131694766Y-80041447D01*
X131743147Y-79993066D01*
X131839909Y-79944685D01*
X131985052Y-79944685D01*
X132081814Y-79993066D01*
X132130195Y-80041447D01*
X132178576Y-80138209D01*
X132178576Y-80428495D01*
X132130195Y-80525257D01*
X132081814Y-80573638D01*
X131985052Y-80622019D01*
X131839909Y-80622019D01*
X132614004Y-80622019D02*
X132614004Y-79944685D01*
X132614004Y-80138209D02*
X132662385Y-80041447D01*
X132710766Y-79993066D01*
X132807528Y-79944685D01*
X132904290Y-79944685D01*
X133097814Y-79944685D02*
X133484861Y-79944685D01*
X133242957Y-79606019D02*
X133242957Y-80476876D01*
X133291338Y-80573638D01*
X133388100Y-80622019D01*
X133484861Y-80622019D01*
X135129814Y-80622019D02*
X134549242Y-80622019D01*
X134839528Y-80622019D02*
X134839528Y-79606019D01*
X134742766Y-79751161D01*
X134646004Y-79847923D01*
X134549242Y-79896304D01*
X151633766Y-103482019D02*
X151633766Y-102466019D01*
X152020814Y-102466019D01*
X152117576Y-102514400D01*
X152165957Y-102562780D01*
X152214338Y-102659542D01*
X152214338Y-102804685D01*
X152165957Y-102901447D01*
X152117576Y-102949828D01*
X152020814Y-102998209D01*
X151633766Y-102998209D01*
X152794909Y-103482019D02*
X152698147Y-103433638D01*
X152649766Y-103385257D01*
X152601385Y-103288495D01*
X152601385Y-102998209D01*
X152649766Y-102901447D01*
X152698147Y-102853066D01*
X152794909Y-102804685D01*
X152940052Y-102804685D01*
X153036814Y-102853066D01*
X153085195Y-102901447D01*
X153133576Y-102998209D01*
X153133576Y-103288495D01*
X153085195Y-103385257D01*
X153036814Y-103433638D01*
X152940052Y-103482019D01*
X152794909Y-103482019D01*
X153569004Y-103482019D02*
X153569004Y-102804685D01*
X153569004Y-102998209D02*
X153617385Y-102901447D01*
X153665766Y-102853066D01*
X153762528Y-102804685D01*
X153859290Y-102804685D01*
X154052814Y-102804685D02*
X154439861Y-102804685D01*
X154197957Y-102466019D02*
X154197957Y-103336876D01*
X154246338Y-103433638D01*
X154343100Y-103482019D01*
X154439861Y-103482019D01*
X155504242Y-102562780D02*
X155552623Y-102514400D01*
X155649385Y-102466019D01*
X155891290Y-102466019D01*
X155988052Y-102514400D01*
X156036433Y-102562780D01*
X156084814Y-102659542D01*
X156084814Y-102756304D01*
X156036433Y-102901447D01*
X155455861Y-103482019D01*
X156084814Y-103482019D01*
X150691305Y-113109828D02*
X151029972Y-113109828D01*
X151175115Y-113642019D02*
X150691305Y-113642019D01*
X150691305Y-112626019D01*
X151175115Y-112626019D01*
X151610543Y-113642019D02*
X151610543Y-112626019D01*
X152191115Y-113642019D01*
X152191115Y-112626019D01*
X158164227Y-109886447D02*
X158067465Y-109838066D01*
X158019084Y-109789685D01*
X157970703Y-109692923D01*
X157970703Y-109644542D01*
X158019084Y-109547780D01*
X158067465Y-109499400D01*
X158164227Y-109451019D01*
X158357751Y-109451019D01*
X158454513Y-109499400D01*
X158502894Y-109547780D01*
X158551275Y-109644542D01*
X158551275Y-109692923D01*
X158502894Y-109789685D01*
X158454513Y-109838066D01*
X158357751Y-109886447D01*
X158164227Y-109886447D01*
X158067465Y-109934828D01*
X158019084Y-109983209D01*
X157970703Y-110079971D01*
X157970703Y-110273495D01*
X158019084Y-110370257D01*
X158067465Y-110418638D01*
X158164227Y-110467019D01*
X158357751Y-110467019D01*
X158454513Y-110418638D01*
X158502894Y-110370257D01*
X158551275Y-110273495D01*
X158551275Y-110079971D01*
X158502894Y-109983209D01*
X158454513Y-109934828D01*
X158357751Y-109886447D01*
X158938322Y-109547780D02*
X158986703Y-109499400D01*
X159083465Y-109451019D01*
X159325370Y-109451019D01*
X159422132Y-109499400D01*
X159470513Y-109547780D01*
X159518894Y-109644542D01*
X159518894Y-109741304D01*
X159470513Y-109886447D01*
X158889941Y-110467019D01*
X159518894Y-110467019D01*
X160389751Y-109451019D02*
X160196227Y-109451019D01*
X160099465Y-109499400D01*
X160051084Y-109547780D01*
X159954322Y-109692923D01*
X159905941Y-109886447D01*
X159905941Y-110273495D01*
X159954322Y-110370257D01*
X160002703Y-110418638D01*
X160099465Y-110467019D01*
X160292989Y-110467019D01*
X160389751Y-110418638D01*
X160438132Y-110370257D01*
X160486513Y-110273495D01*
X160486513Y-110031590D01*
X160438132Y-109934828D01*
X160389751Y-109886447D01*
X160292989Y-109838066D01*
X160099465Y-109838066D01*
X160002703Y-109886447D01*
X159954322Y-109934828D01*
X159905941Y-110031590D01*
D14*
X132880100Y-125942400D02*
X148180100Y-125942400D01*
X148180100Y-125942400D02*
X148180100Y-120742400D01*
X148180100Y-120742400D02*
X130280100Y-120742400D01*
X130280100Y-120742400D02*
X130280100Y-123342400D01*
X130280100Y-123342400D02*
X132880100Y-123342400D01*
X132880100Y-123342400D02*
X132880100Y-125942400D01*
X131610100Y-125942400D02*
X130280100Y-125942400D01*
X130280100Y-125942400D02*
X130280100Y-124612400D01*
X116310100Y-47717400D02*
X117640100Y-47717400D01*
X116310100Y-49047400D02*
X116310100Y-47717400D01*
X118970100Y-50317400D02*
X116310100Y-50317400D01*
X118970100Y-52917400D02*
X118970100Y-50317400D01*
X116310100Y-52917400D02*
X118970100Y-52917400D01*
X116310100Y-50317400D02*
X116310100Y-52917400D01*
X153775100Y-111912400D02*
X153775100Y-114512400D01*
X153775100Y-114512400D02*
X156435100Y-114512400D01*
X156435100Y-114512400D02*
X156435100Y-111912400D01*
X156435100Y-111912400D02*
X153775100Y-111912400D01*
X153775100Y-110642400D02*
X153775100Y-109312400D01*
X153775100Y-109312400D02*
X155105100Y-109312400D01*
D15*
X168440100Y-119532400D02*
X168440100Y-61112400D01*
X163360100Y-119532400D02*
X163360100Y-63652400D01*
X168440100Y-119532400D02*
X163360100Y-119532400D01*
X168440100Y-61112400D02*
X165900100Y-61112400D01*
X164630100Y-60832400D02*
X163080100Y-60832400D01*
X165900100Y-61112400D02*
X165900100Y-63652400D01*
X165900100Y-63652400D02*
X163360100Y-63652400D01*
X163080100Y-60832400D02*
X163080100Y-62382400D01*
X120180100Y-119532400D02*
X120180100Y-61112400D01*
X115100100Y-119532400D02*
X115100100Y-63652400D01*
X120180100Y-119532400D02*
X115100100Y-119532400D01*
X120180100Y-61112400D02*
X117640100Y-61112400D01*
X116370100Y-60832400D02*
X114820100Y-60832400D01*
X117640100Y-61112400D02*
X117640100Y-63652400D01*
X117640100Y-63652400D02*
X115100100Y-63652400D01*
X114820100Y-60832400D02*
X114820100Y-62382400D01*
D14*
X135480100Y-114512400D02*
X134150100Y-114512400D01*
X135480100Y-113182400D02*
X135480100Y-114512400D01*
X132880100Y-111912400D02*
X135480100Y-111912400D01*
X132880100Y-114512400D02*
X132880100Y-111912400D01*
X130280100Y-114512400D02*
X132880100Y-114512400D01*
X130280100Y-81372400D02*
X130280100Y-114512400D01*
X135480100Y-81372400D02*
X130280100Y-81372400D01*
X135480100Y-111912400D02*
X135480100Y-81372400D01*
X151235100Y-71272400D02*
X151235100Y-101812400D01*
X151235100Y-101812400D02*
X156435100Y-101812400D01*
X156435100Y-101812400D02*
X156435100Y-68672400D01*
X156435100Y-68672400D02*
X153835100Y-68672400D01*
X153835100Y-68672400D02*
X153835100Y-71272400D01*
X153835100Y-71272400D02*
X151235100Y-71272400D01*
X151235100Y-70002400D02*
X151235100Y-68672400D01*
X151235100Y-68672400D02*
X152565100Y-68672400D01*
X122660100Y-61052400D02*
X123990100Y-61052400D01*
X122660100Y-62382400D02*
X122660100Y-61052400D01*
X125260100Y-63652400D02*
X122660100Y-63652400D01*
X125260100Y-61052400D02*
X125260100Y-63652400D01*
X127860100Y-61052400D02*
X125260100Y-61052400D01*
X127860100Y-73872400D02*
X127860100Y-61052400D01*
X122660100Y-73872400D02*
X127860100Y-73872400D01*
X122660100Y-63652400D02*
X122660100Y-73872400D01*
X131550100Y-47717400D02*
X132880100Y-47717400D01*
X131550100Y-49047400D02*
X131550100Y-47717400D01*
X134210100Y-50317400D02*
X131550100Y-50317400D01*
X134210100Y-57997400D02*
X134210100Y-50317400D01*
X131550100Y-57997400D02*
X134210100Y-57997400D01*
X131550100Y-50317400D02*
X131550100Y-57997400D01*
D15*
X129732480Y-124080495D02*
X128732480Y-124080495D01*
X128732480Y-123699542D01*
X128780100Y-123604304D01*
X128827719Y-123556685D01*
X128922957Y-123509066D01*
X129065814Y-123509066D01*
X129161052Y-123556685D01*
X129208671Y-123604304D01*
X129256290Y-123699542D01*
X129256290Y-124080495D01*
X128732480Y-123175733D02*
X128732480Y-122509066D01*
X129732480Y-122937638D01*
X116902004Y-47169780D02*
X116902004Y-46169780D01*
X117282957Y-46169780D01*
X117378195Y-46217400D01*
X117425814Y-46265019D01*
X117473433Y-46360257D01*
X117473433Y-46503114D01*
X117425814Y-46598352D01*
X117378195Y-46645971D01*
X117282957Y-46693590D01*
X116902004Y-46693590D01*
X118330576Y-46503114D02*
X118330576Y-47169780D01*
X118092480Y-46122161D02*
X117854385Y-46836447D01*
X118473433Y-46836447D01*
X154367004Y-108764780D02*
X154367004Y-107764780D01*
X154747957Y-107764780D01*
X154843195Y-107812400D01*
X154890814Y-107860019D01*
X154938433Y-107955257D01*
X154938433Y-108098114D01*
X154890814Y-108193352D01*
X154843195Y-108240971D01*
X154747957Y-108288590D01*
X154367004Y-108288590D01*
X155271766Y-107764780D02*
X155890814Y-107764780D01*
X155557480Y-108145733D01*
X155700338Y-108145733D01*
X155795576Y-108193352D01*
X155843195Y-108240971D01*
X155890814Y-108336209D01*
X155890814Y-108574304D01*
X155843195Y-108669542D01*
X155795576Y-108717161D01*
X155700338Y-108764780D01*
X155414623Y-108764780D01*
X155319385Y-108717161D01*
X155271766Y-108669542D01*
X165162004Y-60294780D02*
X165162004Y-59294780D01*
X165542957Y-59294780D01*
X165638195Y-59342400D01*
X165685814Y-59390019D01*
X165733433Y-59485257D01*
X165733433Y-59628114D01*
X165685814Y-59723352D01*
X165638195Y-59770971D01*
X165542957Y-59818590D01*
X165162004Y-59818590D01*
X166304861Y-59723352D02*
X166209623Y-59675733D01*
X166162004Y-59628114D01*
X166114385Y-59532876D01*
X166114385Y-59485257D01*
X166162004Y-59390019D01*
X166209623Y-59342400D01*
X166304861Y-59294780D01*
X166495338Y-59294780D01*
X166590576Y-59342400D01*
X166638195Y-59390019D01*
X166685814Y-59485257D01*
X166685814Y-59532876D01*
X166638195Y-59628114D01*
X166590576Y-59675733D01*
X166495338Y-59723352D01*
X166304861Y-59723352D01*
X166209623Y-59770971D01*
X166162004Y-59818590D01*
X166114385Y-59913828D01*
X166114385Y-60104304D01*
X166162004Y-60199542D01*
X166209623Y-60247161D01*
X166304861Y-60294780D01*
X166495338Y-60294780D01*
X166590576Y-60247161D01*
X166638195Y-60199542D01*
X166685814Y-60104304D01*
X166685814Y-59913828D01*
X166638195Y-59818590D01*
X166590576Y-59770971D01*
X166495338Y-59723352D01*
X116902004Y-60294780D02*
X116902004Y-59294780D01*
X117282957Y-59294780D01*
X117378195Y-59342400D01*
X117425814Y-59390019D01*
X117473433Y-59485257D01*
X117473433Y-59628114D01*
X117425814Y-59723352D01*
X117378195Y-59770971D01*
X117282957Y-59818590D01*
X116902004Y-59818590D01*
X117949623Y-60294780D02*
X118140100Y-60294780D01*
X118235338Y-60247161D01*
X118282957Y-60199542D01*
X118378195Y-60056685D01*
X118425814Y-59866209D01*
X118425814Y-59485257D01*
X118378195Y-59390019D01*
X118330576Y-59342400D01*
X118235338Y-59294780D01*
X118044861Y-59294780D01*
X117949623Y-59342400D01*
X117902004Y-59390019D01*
X117854385Y-59485257D01*
X117854385Y-59723352D01*
X117902004Y-59818590D01*
X117949623Y-59866209D01*
X118044861Y-59913828D01*
X118235338Y-59913828D01*
X118330576Y-59866209D01*
X118378195Y-59818590D01*
X118425814Y-59723352D01*
X132142004Y-116174780D02*
X132142004Y-115174780D01*
X132522957Y-115174780D01*
X132618195Y-115222400D01*
X132665814Y-115270019D01*
X132713433Y-115365257D01*
X132713433Y-115508114D01*
X132665814Y-115603352D01*
X132618195Y-115650971D01*
X132522957Y-115698590D01*
X132142004Y-115698590D01*
X133665814Y-116174780D02*
X133094385Y-116174780D01*
X133380100Y-116174780D02*
X133380100Y-115174780D01*
X133284861Y-115317638D01*
X133189623Y-115412876D01*
X133094385Y-115460495D01*
X153097004Y-68124780D02*
X153097004Y-67124780D01*
X153477957Y-67124780D01*
X153573195Y-67172400D01*
X153620814Y-67220019D01*
X153668433Y-67315257D01*
X153668433Y-67458114D01*
X153620814Y-67553352D01*
X153573195Y-67600971D01*
X153477957Y-67648590D01*
X153097004Y-67648590D01*
X154049385Y-67220019D02*
X154097004Y-67172400D01*
X154192242Y-67124780D01*
X154430338Y-67124780D01*
X154525576Y-67172400D01*
X154573195Y-67220019D01*
X154620814Y-67315257D01*
X154620814Y-67410495D01*
X154573195Y-67553352D01*
X154001766Y-68124780D01*
X154620814Y-68124780D01*
X124522004Y-60504780D02*
X124522004Y-59504780D01*
X124902957Y-59504780D01*
X124998195Y-59552400D01*
X125045814Y-59600019D01*
X125093433Y-59695257D01*
X125093433Y-59838114D01*
X125045814Y-59933352D01*
X124998195Y-59980971D01*
X124902957Y-60028590D01*
X124522004Y-60028590D01*
X125998195Y-59504780D02*
X125522004Y-59504780D01*
X125474385Y-59980971D01*
X125522004Y-59933352D01*
X125617242Y-59885733D01*
X125855338Y-59885733D01*
X125950576Y-59933352D01*
X125998195Y-59980971D01*
X126045814Y-60076209D01*
X126045814Y-60314304D01*
X125998195Y-60409542D01*
X125950576Y-60457161D01*
X125855338Y-60504780D01*
X125617242Y-60504780D01*
X125522004Y-60457161D01*
X125474385Y-60409542D01*
X132142004Y-47169780D02*
X132142004Y-46169780D01*
X132522957Y-46169780D01*
X132618195Y-46217400D01*
X132665814Y-46265019D01*
X132713433Y-46360257D01*
X132713433Y-46503114D01*
X132665814Y-46598352D01*
X132618195Y-46645971D01*
X132522957Y-46693590D01*
X132142004Y-46693590D01*
X133570576Y-46169780D02*
X133380100Y-46169780D01*
X133284861Y-46217400D01*
X133237242Y-46265019D01*
X133142004Y-46407876D01*
X133094385Y-46598352D01*
X133094385Y-46979304D01*
X133142004Y-47074542D01*
X133189623Y-47122161D01*
X133284861Y-47169780D01*
X133475338Y-47169780D01*
X133570576Y-47122161D01*
X133618195Y-47074542D01*
X133665814Y-46979304D01*
X133665814Y-46741209D01*
X133618195Y-46645971D01*
X133570576Y-46598352D01*
X133475338Y-46550733D01*
X133284861Y-46550733D01*
X133189623Y-46598352D01*
X133142004Y-46645971D01*
X133094385Y-46741209D01*
M02*
